<svg aria-hidden="true" style="position: absolute; width: 0; height: 0; overflow: hidden;" version="1.1" xmlns="http://www.w3.org/2000/svg" xmlns:xlink="http://www.w3.org/1999/xlink">
<defs>
<symbol id="icon-Alcove" viewBox="0 0 32 32">
<path d="M8 4v4h-4v-4h4zM10 28v-4c0-0.53-0.211-1.039-0.586-1.414s-0.884-0.586-1.414-0.586h-4c-0.53 0-1.039 0.211-1.414 0.586s-0.586 0.884-0.586 1.414v4c0 0.53 0.211 1.039 0.586 1.414s0.884 0.586 1.414 0.586h4c0.53 0 1.039-0.211 1.414-0.586s0.586-0.884 0.586-1.414zM10 18v-4c0-0.53-0.211-1.039-0.586-1.414s-0.884-0.586-1.414-0.586h-4c-0.53 0-1.039 0.211-1.414 0.586s-0.586 0.884-0.586 1.414v4c0 0.53 0.211 1.039 0.586 1.414s0.884 0.586 1.414 0.586h4c0.53 0 1.039-0.211 1.414-0.586s0.586-0.884 0.586-1.414zM10 8v-4c0-0.53-0.211-1.039-0.586-1.414s-0.884-0.586-1.414-0.586h-4c-0.53 0-1.039 0.211-1.414 0.586s-0.586 0.884-0.586 1.414v4c0 0.53 0.211 1.039 0.586 1.414s0.884 0.586 1.414 0.586h4c0.53 0 1.039-0.211 1.414-0.586s0.586-0.884 0.586-1.414zM20 28v-4c0-0.53-0.211-1.039-0.586-1.414s-0.884-0.586-1.414-0.586h-4c-0.53 0-1.039 0.211-1.414 0.586s-0.586 0.884-0.586 1.414v4c0 0.53 0.211 1.039 0.586 1.414s0.884 0.586 1.414 0.586h4c0.53 0 1.039-0.211 1.414-0.586s0.586-0.884 0.586-1.414zM20 18v-4c0-0.53-0.211-1.039-0.586-1.414s-0.884-0.586-1.414-0.586h-4c-0.53 0-1.039 0.211-1.414 0.586s-0.586 0.884-0.586 1.414v4c0 0.53 0.211 1.039 0.586 1.414s0.884 0.586 1.414 0.586h4c0.53 0 1.039-0.211 1.414-0.586s0.586-0.884 0.586-1.414zM20 8v-4c0-0.53-0.211-1.039-0.586-1.414s-0.884-0.586-1.414-0.586h-4c-0.53 0-1.039 0.211-1.414 0.586s-0.586 0.884-0.586 1.414v4c0 0.53 0.211 1.039 0.586 1.414s0.884 0.586 1.414 0.586h4c0.53 0 1.039-0.211 1.414-0.586s0.586-0.884 0.586-1.414zM18 4v4h-4v-4h4zM28 4v4h-4v-4h4zM8 14v4h-4v-4h4zM18 14v4h-4v-4h4zM28 14h-4v4h4v-4zM8 24v4h-4v-4h4zM18 24v4h-4v-4h4zM28 24v4h-4v-4h4zM24 2c-0.53 0-1.039 0.211-1.414 0.586s-0.586 0.884-0.586 1.414v4c0 0.53 0.211 1.039 0.586 1.414s0.884 0.586 1.414 0.586h4c0.53 0 1.039-0.211 1.414-0.586s0.586-0.884 0.586-1.414v-4c0-0.53-0.211-1.039-0.586-1.414s-0.884-0.586-1.414-0.586h-4zM22 14c0-0.53 0.211-1.039 0.586-1.414s0.884-0.586 1.414-0.586h4c0.53 0 1.039 0.211 1.414 0.586s0.586 0.884 0.586 1.414v4c0 0.53-0.211 1.039-0.586 1.414s-0.884 0.586-1.414 0.586h-4c-0.53 0-1.039-0.211-1.414-0.586s-0.586-0.884-0.586-1.414v-4zM24 22c-0.53 0-1.039 0.211-1.414 0.586s-0.586 0.884-0.586 1.414v4c0 0.53 0.211 1.039 0.586 1.414s0.884 0.586 1.414 0.586h4c0.53 0 1.039-0.211 1.414-0.586s0.586-0.884 0.586-1.414v-4c0-0.53-0.211-1.039-0.586-1.414s-0.884-0.586-1.414-0.586h-4z"></path>
</symbol>
<symbol id="icon-Fully-Integrated" viewBox="0 0 32 32">
<path d="M2 5c0-0.796 0.316-1.559 0.879-2.121s1.326-0.879 2.121-0.879h6c0.796 0 1.559 0.316 2.121 0.879s0.879 1.326 0.879 2.121v6c0 0.796-0.316 1.559-0.879 2.121s-1.326 0.879-2.121 0.879h-6c-0.796 0-1.559-0.316-2.121-0.879s-0.879-1.326-0.879-2.121v-6zM5 4c-0.265 0-0.52 0.105-0.707 0.293s-0.293 0.442-0.293 0.707v6c0 0.265 0.105 0.52 0.293 0.707s0.442 0.293 0.707 0.293h6c0.265 0 0.52-0.105 0.707-0.293s0.293-0.442 0.293-0.707v-6c0-0.265-0.105-0.52-0.293-0.707s-0.442-0.293-0.707-0.293h-6zM18 5c0-0.796 0.316-1.559 0.879-2.121s1.326-0.879 2.121-0.879h6c0.796 0 1.559 0.316 2.121 0.879s0.879 1.326 0.879 2.121v6c0 0.796-0.316 1.559-0.879 2.121s-1.326 0.879-2.121 0.879h-6c-0.796 0-1.559-0.316-2.121-0.879s-0.879-1.326-0.879-2.121v-6zM21 4c-0.265 0-0.52 0.105-0.707 0.293s-0.293 0.442-0.293 0.707v6c0 0.265 0.105 0.52 0.293 0.707s0.442 0.293 0.707 0.293h6c0.265 0 0.52-0.105 0.707-0.293s0.293-0.442 0.293-0.707v-6c0-0.265-0.105-0.52-0.293-0.707s-0.442-0.293-0.707-0.293h-6zM2 21c0-0.796 0.316-1.559 0.879-2.121s1.326-0.879 2.121-0.879h6c0.796 0 1.559 0.316 2.121 0.879s0.879 1.326 0.879 2.121v6c0 0.796-0.316 1.559-0.879 2.121s-1.326 0.879-2.121 0.879h-6c-0.796 0-1.559-0.316-2.121-0.879s-0.879-1.326-0.879-2.121v-6zM5 20c-0.265 0-0.52 0.105-0.707 0.293s-0.293 0.442-0.293 0.707v6c0 0.265 0.105 0.52 0.293 0.707s0.442 0.293 0.707 0.293h6c0.265 0 0.52-0.105 0.707-0.293s0.293-0.442 0.293-0.707v-6c0-0.265-0.105-0.52-0.293-0.707s-0.442-0.293-0.707-0.293h-6zM18 21c0-0.796 0.316-1.559 0.879-2.121s1.326-0.879 2.121-0.879h6c0.796 0 1.559 0.316 2.121 0.879s0.879 1.326 0.879 2.121v6c0 0.796-0.316 1.559-0.879 2.121s-1.326 0.879-2.121 0.879h-6c-0.796 0-1.559-0.316-2.121-0.879s-0.879-1.326-0.879-2.121v-6zM21 20c-0.265 0-0.52 0.105-0.707 0.293s-0.293 0.442-0.293 0.707v6c0 0.265 0.105 0.52 0.293 0.707s0.442 0.293 0.707 0.293h6c0.265 0 0.52-0.105 0.707-0.293s0.293-0.442 0.293-0.707v-6c0-0.265-0.105-0.52-0.293-0.707s-0.442-0.293-0.707-0.293h-6z"></path>
</symbol>
<symbol id="icon-Van" viewBox="0 0 32 32">
<path d="M12 2h-10v28h10v-28zM30 2h-10v10h10v-10zM30 20v10h-10v-10h10zM0 2c0-0.53 0.211-1.039 0.586-1.414s0.884-0.586 1.414-0.586h10c0.53 0 1.039 0.211 1.414 0.586s0.586 0.884 0.586 1.414v28c0 0.53-0.211 1.039-0.586 1.414s-0.884 0.586-1.414 0.586h-10c-0.53 0-1.039-0.211-1.414-0.586s-0.586-0.884-0.586-1.414v-28zM18 2c0-0.53 0.211-1.039 0.586-1.414s0.884-0.586 1.414-0.586h10c0.53 0 1.039 0.211 1.414 0.586s0.586 0.884 0.586 1.414v10c0 0.53-0.211 1.039-0.586 1.414s-0.884 0.586-1.414 0.586h-10c-0.53 0-1.039-0.211-1.414-0.586s-0.586-0.884-0.586-1.414v-10zM20 18c-0.53 0-1.039 0.211-1.414 0.586s-0.586 0.884-0.586 1.414v10c0 0.53 0.211 1.039 0.586 1.414s0.884 0.586 1.414 0.586h10c0.53 0 1.039-0.211 1.414-0.586s0.586-0.884 0.586-1.414v-10c0-0.53-0.211-1.039-0.586-1.414s-0.884-0.586-1.414-0.586h-10z"></path>
</symbol>
<symbol id="icon-TV" viewBox="0 0 32 32">
<path d="M0 7.5c0 0 0-4 4-4h24c0 0 4 0 4 4v12c0 0 0 4-4 4h-8c0 1.333 0.167 2.333 0.5 3h1.5c0.265 0 0.52 0.105 0.707 0.293s0.293 0.442 0.293 0.707c0 0.265-0.105 0.52-0.293 0.707s-0.442 0.293-0.707 0.293h-12c-0.265 0-0.52-0.105-0.707-0.293s-0.293-0.442-0.293-0.707c0-0.265 0.105-0.52 0.293-0.707s0.442-0.293 0.707-0.293h1.5c0.333-0.667 0.5-1.667 0.5-3h-8c0 0-4 0-4-4v-12zM2.796 5.79c-0.22 0.153-0.395 0.361-0.508 0.604-0.168 0.353-0.266 0.735-0.288 1.126v11.98c0 0.65 0.156 1.004 0.29 1.204 0.14 0.208 0.341 0.377 0.604 0.508 0.338 0.162 0.703 0.259 1.076 0.286l0.050 0.002h23.98c0.65 0 1.004-0.156 1.204-0.29 0.22-0.153 0.395-0.361 0.508-0.604 0.162-0.338 0.259-0.703 0.286-1.076l0.002-0.050v-11.98c0-0.65-0.156-1.004-0.29-1.204-0.153-0.22-0.361-0.395-0.604-0.508-0.353-0.168-0.736-0.266-1.126-0.288h-23.98c-0.65 0-1.004 0.156-1.204 0.29z"></path>
</symbol>
<symbol id="icon-Bathroom" viewBox="0 0 24 32">
<path d="M10.42 1.6c0.96-1.010 1.58-1.6 1.58-1.6 0.219 0.725 0.466 1.417 0.742 2.076 1.624 3.892 4.146 6.7 6.394 9.2 2.62 2.916 4.864 5.414 4.864 8.724 0 3.183-1.264 6.235-3.515 8.485s-5.303 3.515-8.485 3.515-6.235-1.264-8.485-3.515c-2.25-2.25-3.515-5.303-3.515-8.485 0-6.664 7.16-14.966 10.42-18.4zM11.246 3.642c-1.285 1.389-2.505 2.837-3.658 4.338-1.452 1.9-2.872 4.016-3.92 6.14-1.060 2.146-1.668 4.156-1.668 5.88 0 2.652 1.054 5.196 2.929 7.071s4.419 2.929 7.071 2.929c2.652 0 5.196-1.054 7.071-2.929s2.929-4.419 2.929-7.071c0-2.402-1.592-4.314-4.362-7.4l-0.060-0.064c-2.078-2.316-4.578-5.094-6.332-8.894z"></path>
</symbol>
<symbol id="icon-Kitchen" viewBox="0 0 32 32">
<path d="M6.212 9.6l-0.011 0.015-0.053 0.072c-0.274 0.377-0.53 0.766-0.768 1.167-0.202 0.321-0.379 0.657-0.531 1.005-0.098 0.226-0.128 0.346-0.139 0.388v0.015c0.043 0.333 0.16 0.652 0.343 0.934 0.282 0.501 0.67 1.024 1.16 1.675l0.038 0.045c0.444 0.595 0.979 1.306 1.393 2.044 0.422 0.753 0.828 1.713 0.828 2.805 0 0.708-0.245 1.385-0.448 1.86-0.218 0.505-0.472 0.993-0.76 1.461-0.295 0.494-0.613 0.974-0.952 1.438l-0.068 0.094-0.019 0.030-0.008 0.008c-0.299 0.4-0.745 0.665-1.239 0.736s-0.997-0.057-1.396-0.356-0.665-0.745-0.736-1.239c-0.071-0.494 0.057-0.997 0.356-1.396l0.011-0.015 0.053-0.072c0.274-0.377 0.53-0.766 0.768-1.167 0.202-0.321 0.379-0.657 0.531-1.005 0.098-0.226 0.128-0.346 0.139-0.388-0.040-0.338-0.156-0.662-0.339-0.949-0.349-0.584-0.738-1.144-1.163-1.675l-0.038-0.045c-0.509-0.65-0.974-1.333-1.393-2.044-0.513-0.848-0.798-1.814-0.828-2.805 0-0.708 0.245-1.385 0.448-1.86 0.222-0.52 0.504-1.032 0.76-1.461 0.299-0.491 0.617-0.971 0.952-1.438l0.094-0.132c0.299-0.4 0.745-0.665 1.239-0.736s0.997 0.057 1.396 0.356c0.4 0.299 0.665 0.745 0.736 1.239s-0.057 0.996-0.356 1.396zM17.506 9.6l-0.011 0.015-0.053 0.072c-0.274 0.377-0.53 0.766-0.768 1.167-0.202 0.321-0.379 0.657-0.531 1.005-0.098 0.226-0.128 0.346-0.139 0.388v0.015c0.043 0.333 0.16 0.652 0.343 0.934 0.282 0.501 0.67 1.024 1.16 1.675l0.038 0.045c0.444 0.595 0.979 1.306 1.393 2.044 0.422 0.753 0.828 1.713 0.828 2.805 0 0.708-0.245 1.385-0.448 1.86-0.218 0.505-0.472 0.993-0.76 1.461-0.295 0.494-0.613 0.974-0.952 1.438l-0.068 0.094-0.019 0.030-0.008 0.008c-0.299 0.4-0.745 0.665-1.239 0.736s-0.997-0.057-1.396-0.356-0.665-0.745-0.736-1.239c-0.071-0.494 0.057-0.997 0.356-1.396l0.011-0.015 0.053-0.072c0.274-0.377 0.53-0.766 0.768-1.167 0.202-0.321 0.379-0.657 0.531-1.005 0.098-0.226 0.128-0.346 0.139-0.388-0.040-0.338-0.156-0.662-0.339-0.949-0.349-0.584-0.738-1.144-1.163-1.675l-0.038-0.045c-0.509-0.65-0.974-1.333-1.393-2.044-0.513-0.848-0.798-1.814-0.828-2.805 0-0.708 0.245-1.385 0.448-1.86 0.222-0.52 0.504-1.032 0.76-1.461 0.299-0.491 0.617-0.971 0.952-1.438l0.094-0.132c0.299-0.4 0.745-0.665 1.239-0.736s0.997 0.057 1.396 0.356c0.4 0.299 0.665 0.745 0.736 1.239s-0.057 0.996-0.356 1.396zM28.8 9.6l-0.011 0.015-0.053 0.072c-0.274 0.377-0.53 0.766-0.768 1.167-0.202 0.321-0.379 0.657-0.531 1.005-0.098 0.226-0.128 0.346-0.139 0.388v0.015c0.043 0.333 0.16 0.652 0.343 0.934 0.282 0.501 0.67 1.024 1.16 1.675l0.038 0.045c0.444 0.595 0.979 1.306 1.393 2.044 0.422 0.753 0.828 1.713 0.828 2.805 0 0.708-0.245 1.385-0.448 1.86-0.218 0.505-0.472 0.993-0.76 1.461-0.294 0.494-0.611 0.973-0.949 1.438l-0.072 0.094-0.019 0.030-0.008 0.008c-0.299 0.4-0.745 0.665-1.239 0.736s-0.997-0.057-1.396-0.356-0.665-0.745-0.736-1.239c-0.071-0.494 0.056-0.997 0.356-1.396l0.011-0.015 0.053-0.072c0.274-0.377 0.53-0.766 0.768-1.167 0.202-0.321 0.379-0.657 0.531-1.005 0.098-0.226 0.128-0.346 0.139-0.388-0.040-0.338-0.156-0.662-0.339-0.949-0.349-0.584-0.738-1.144-1.163-1.675l-0.038-0.045c-0.509-0.65-0.974-1.333-1.393-2.044-0.513-0.848-0.798-1.814-0.828-2.805 0-0.708 0.245-1.385 0.448-1.86 0.222-0.52 0.504-1.032 0.76-1.461 0.299-0.491 0.617-0.971 0.952-1.438l0.094-0.132c0.299-0.4 0.745-0.665 1.239-0.736s0.997 0.057 1.396 0.356 0.665 0.745 0.736 1.239c0.071 0.494-0.056 0.996-0.356 1.396z"></path>
</symbol>
<symbol id="icon-Automatic" viewBox="0 0 32 32">
<path d="M12 7c0-0.796 0.316-1.559 0.879-2.121s1.326-0.879 2.121-0.879h2c0.796 0 1.559 0.316 2.121 0.879s0.879 1.326 0.879 2.121v2c0 0.796-0.316 1.559-0.879 2.121s-1.326 0.879-2.121 0.879v2h11c0.265 0 0.52 0.105 0.707 0.293s0.293 0.442 0.293 0.707v2c0 0.265-0.105 0.52-0.293 0.707s-0.442 0.293-0.707 0.293c-0.265 0-0.52-0.105-0.707-0.293s-0.293-0.442-0.293-0.707v-1h-10v1c0 0.265-0.105 0.52-0.293 0.707s-0.442 0.293-0.707 0.293c-0.265 0-0.52-0.105-0.707-0.293s-0.293-0.442-0.293-0.707v-1h-10v1c0 0.265-0.105 0.52-0.293 0.707s-0.442 0.293-0.707 0.293c-0.265 0-0.52-0.105-0.707-0.293s-0.293-0.442-0.293-0.707v-2c0-0.265 0.105-0.52 0.293-0.707s0.442-0.293 0.707-0.293h11v-2c-0.796 0-1.559-0.316-2.121-0.879s-0.879-1.326-0.879-2.121v-2zM17 10c0.265 0 0.52-0.105 0.707-0.293s0.293-0.442 0.293-0.707v-2c0-0.265-0.105-0.52-0.293-0.707s-0.442-0.293-0.707-0.293h-2c-0.265 0-0.52 0.105-0.707 0.293s-0.293 0.442-0.293 0.707v2c0 0.265 0.105 0.52 0.293 0.707s0.442 0.293 0.707 0.293h2zM0 23c0-0.796 0.316-1.559 0.879-2.121s1.326-0.879 2.121-0.879h2c0.796 0 1.559 0.316 2.121 0.879s0.879 1.326 0.879 2.121v2c0 0.796-0.316 1.559-0.879 2.121s-1.326 0.879-2.121 0.879h-2c-0.796 0-1.559-0.316-2.121-0.879s-0.879-1.326-0.879-2.121v-2zM3 22c-0.265 0-0.52 0.105-0.707 0.293s-0.293 0.442-0.293 0.707v2c0 0.265 0.105 0.52 0.293 0.707s0.442 0.293 0.707 0.293h2c0.265 0 0.52-0.105 0.707-0.293s0.293-0.442 0.293-0.707v-2c0-0.265-0.105-0.52-0.293-0.707s-0.442-0.293-0.707-0.293h-2zM12 23c0-0.796 0.316-1.559 0.879-2.121s1.326-0.879 2.121-0.879h2c0.796 0 1.559 0.316 2.121 0.879s0.879 1.326 0.879 2.121v2c0 0.796-0.316 1.559-0.879 2.121s-1.326 0.879-2.121 0.879h-2c-0.796 0-1.559-0.316-2.121-0.879s-0.879-1.326-0.879-2.121v-2zM15 22c-0.265 0-0.52 0.105-0.707 0.293s-0.293 0.442-0.293 0.707v2c0 0.265 0.105 0.52 0.293 0.707s0.442 0.293 0.707 0.293h2c0.265 0 0.52-0.105 0.707-0.293s0.293-0.442 0.293-0.707v-2c0-0.265-0.105-0.52-0.293-0.707s-0.442-0.293-0.707-0.293h-2zM24 23c0-0.796 0.316-1.559 0.879-2.121s1.326-0.879 2.121-0.879h2c0.796 0 1.559 0.316 2.121 0.879s0.879 1.326 0.879 2.121v2c0 0.796-0.316 1.559-0.879 2.121s-1.326 0.879-2.121 0.879h-2c-0.796 0-1.559-0.316-2.121-0.879s-0.879-1.326-0.879-2.121v-2zM27 22c-0.265 0-0.52 0.105-0.707 0.293s-0.293 0.442-0.293 0.707v2c0 0.265 0.105 0.52 0.293 0.707s0.442 0.293 0.707 0.293h2c0.265 0 0.52-0.105 0.707-0.293s0.293-0.442 0.293-0.707v-2c0-0.265-0.105-0.52-0.293-0.707s-0.442-0.293-0.707-0.293h-2z"></path>
</symbol>
<symbol id="icon-AC" viewBox="0 0 32 32">
<path d="M25 4c-1.326 0-2.598 0.527-3.535 1.464s-1.465 2.209-1.465 3.536c0 0.265-0.105 0.52-0.293 0.707s-0.442 0.293-0.707 0.293c-0.265 0-0.52-0.105-0.707-0.293s-0.293-0.442-0.293-0.707c0-1.384 0.41-2.738 1.18-3.889s1.862-2.048 3.142-2.578c1.279-0.53 2.687-0.668 4.044-0.398s2.605 0.937 3.584 1.916c0.979 0.979 1.646 2.226 1.916 3.584s0.131 2.765-0.398 4.044c-0.53 1.279-1.427 2.372-2.578 3.142s-2.505 1.18-3.889 1.18h-24c-0.265 0-0.52-0.105-0.707-0.293s-0.293-0.442-0.293-0.707c0-0.265 0.105-0.52 0.293-0.707s0.442-0.293 0.707-0.293h24c1.326 0 2.598-0.527 3.535-1.464s1.465-2.209 1.465-3.536-0.527-2.598-1.465-3.536c-0.938-0.938-2.209-1.464-3.535-1.464zM11 6c-0.53 0-1.039 0.211-1.414 0.586s-0.586 0.884-0.586 1.414c0 0.265-0.105 0.52-0.293 0.707s-0.442 0.293-0.707 0.293c-0.265 0-0.52-0.105-0.707-0.293s-0.293-0.442-0.293-0.707c0-0.791 0.235-1.564 0.674-2.222s1.064-1.171 1.795-1.473c0.731-0.303 1.535-0.382 2.311-0.228s1.489 0.535 2.048 1.095 0.94 1.272 1.095 2.048c0.154 0.776 0.075 1.58-0.228 2.311s-0.815 1.356-1.473 1.795-1.431 0.674-2.222 0.674h-10c-0.265 0-0.52-0.105-0.707-0.293s-0.293-0.442-0.293-0.707c0-0.265 0.105-0.52 0.293-0.707s0.442-0.293 0.707-0.293h10c0.53 0 1.039-0.211 1.414-0.586s0.586-0.884 0.586-1.414c0-0.53-0.211-1.039-0.586-1.414s-0.884-0.586-1.414-0.586zM0 19c0-0.265 0.105-0.52 0.293-0.707s0.442-0.293 0.707-0.293h20.084c1.187 0 2.347 0.352 3.333 1.011s1.756 1.596 2.21 2.693c0.454 1.096 0.573 2.303 0.341 3.467s-0.803 2.233-1.642 3.072c-0.839 0.839-1.908 1.411-3.072 1.642s-2.37 0.113-3.467-0.341-2.033-1.223-2.693-2.21c-0.659-0.987-1.011-2.147-1.011-3.333 0-0.265 0.105-0.52 0.293-0.707s0.442-0.293 0.707-0.293c0.265 0 0.52 0.105 0.707 0.293s0.293 0.442 0.293 0.707c0 0.791 0.235 1.564 0.674 2.222s1.064 1.171 1.795 1.473c0.731 0.303 1.535 0.382 2.311 0.228s1.489-0.535 2.048-1.095 0.94-1.272 1.095-2.048c0.154-0.776 0.075-1.58-0.228-2.311s-0.815-1.356-1.473-1.795-1.431-0.674-2.222-0.674h-20.084c-0.265 0-0.52-0.105-0.707-0.293s-0.293-0.442-0.293-0.707z"></path>
</symbol>
<symbol id="icon-divider" viewBox="0 0 5760 32">
<path fill="none" stroke="#dadde1" style="stroke: var(--color1, #dadde1)" stroke-linejoin="miter" stroke-linecap="butt" stroke-miterlimit="4" stroke-width="16" d="M0 16h5760"></path>
</symbol>
<symbol id="icon-Kitchen" viewBox="0 0 32 32">
<path stroke-linejoin="miter" stroke-linecap="butt" stroke-miterlimit="4" stroke-width="1.6" d="M4.109 27.91l0 0c0.207 0.933 0.726 1.767 1.471 2.365s1.672 0.924 2.628 0.924l-4.099-3.29zM4.109 27.91l-3.304-14.867c-0-0-0-0-0-0-0.006-0.029-0.006-0.059 0.001-0.088s0.020-0.056 0.039-0.080 0.042-0.042 0.069-0.055c0.027-0.013 0.057-0.020 0.086-0.020h25.999c0 0 0 0 0 0 0.030 0 0.059 0.007 0.086 0.020s0.051 0.032 0.069 0.055 0.032 0.051 0.039 0.080c0.007 0.029 0.007 0.059 0.001 0.088-0 0-0 0-0 0l-0.61 2.734 0.75 0.193c1.306 0.336 2.431 1.167 3.136 2.317s0.936 2.529 0.643 3.846c-0.292 1.317-1.085 2.468-2.211 3.212s-2.496 1.020-3.822 0.772l-0.76-0.142M4.109 27.91l20.212-1.935M24.321 25.975l-0.168 0.755M24.321 25.975l-0.168 0.755M24.153 26.731l-0.262 1.18c0 0 0 0 0 0-0.207 0.933-0.726 1.767-1.472 2.365s-1.672 0.924-2.628 0.924c0 0-0 0-0 0M24.153 26.731l-4.361 4.469M19.792 31.2v0zM26 25.8h0.002c1.156-0.003 2.271-0.423 3.142-1.182s1.439-1.807 1.6-2.952c0.161-1.144-0.097-2.308-0.725-3.278s-1.585-1.681-2.695-2.002l-0.818-0.237-0.185 0.832-1.919 8.626 0.839 0.134c0.251 0.040 0.504 0.060 0.758 0.060zM2.246 13.2h-0.997l3.25 14.623c0 0 0 0 0 0 0.187 0.844 0.657 1.599 1.331 2.14s1.513 0.836 2.378 0.836h11.584c0.865-0 1.703-0.295 2.378-0.836s1.144-1.296 1.331-2.14c0 0 0-0 0-0l3.25-14.623h-24.505z"></path>
<path stroke-linejoin="miter" stroke-linecap="butt" stroke-miterlimit="4" stroke-width="3.2" d="M8.8 1.6l-0.006 0.008-0.028 0.038c-0.146 0.2-0.282 0.407-0.408 0.62-0.107 0.171-0.202 0.349-0.282 0.534-0.052 0.12-0.068 0.184-0.074 0.206v0.008c0.023 0.177 0.085 0.346 0.182 0.496 0.15 0.266 0.356 0.544 0.616 0.89l0.020 0.024c0.236 0.316 0.52 0.694 0.74 1.086 0.224 0.4 0.44 0.91 0.44 1.49 0 0.376-0.13 0.736-0.238 0.988-0.116 0.268-0.251 0.527-0.404 0.776-0.157 0.262-0.326 0.517-0.506 0.764l-0.036 0.050-0.010 0.016-0.004 0.004c-0.159 0.212-0.396 0.353-0.658 0.391s-0.529-0.030-0.742-0.189c-0.212-0.159-0.353-0.396-0.391-0.658s0.030-0.529 0.189-0.742l0.006-0.008 0.028-0.038c0.146-0.2 0.282-0.407 0.408-0.62 0.107-0.171 0.202-0.349 0.282-0.534 0.052-0.12 0.068-0.184 0.074-0.206-0.021-0.179-0.083-0.352-0.18-0.504-0.186-0.31-0.392-0.608-0.618-0.89l-0.020-0.024c-0.27-0.345-0.517-0.708-0.74-1.086-0.272-0.451-0.424-0.964-0.44-1.49 0-0.376 0.13-0.736 0.238-0.988 0.118-0.276 0.268-0.548 0.404-0.776 0.159-0.261 0.328-0.516 0.506-0.764l0.050-0.070c0.159-0.212 0.396-0.353 0.658-0.391s0.529 0.030 0.742 0.189c0.212 0.159 0.353 0.396 0.391 0.658s-0.030 0.529-0.189 0.742zM14.8 1.6l-0.006 0.008-0.028 0.038c-0.146 0.2-0.282 0.407-0.408 0.62-0.107 0.171-0.202 0.349-0.282 0.534-0.052 0.12-0.068 0.184-0.074 0.206v0.008c0.023 0.177 0.085 0.346 0.182 0.496 0.15 0.266 0.356 0.544 0.616 0.89l0.020 0.024c0.236 0.316 0.52 0.694 0.74 1.086 0.224 0.4 0.44 0.91 0.44 1.49 0 0.376-0.13 0.736-0.238 0.988-0.116 0.268-0.251 0.527-0.404 0.776-0.157 0.262-0.326 0.517-0.506 0.764l-0.036 0.050-0.010 0.016-0.004 0.004c-0.159 0.212-0.396 0.353-0.658 0.391s-0.529-0.030-0.742-0.189c-0.212-0.159-0.353-0.396-0.391-0.658s0.030-0.529 0.189-0.742l0.006-0.008 0.028-0.038c0.146-0.2 0.282-0.407 0.408-0.62 0.107-0.171 0.202-0.349 0.282-0.534 0.052-0.12 0.068-0.184 0.074-0.206-0.021-0.179-0.083-0.352-0.18-0.504-0.186-0.31-0.392-0.608-0.618-0.89l-0.020-0.024c-0.27-0.345-0.517-0.708-0.74-1.086-0.272-0.451-0.424-0.964-0.44-1.49 0-0.376 0.13-0.736 0.238-0.988 0.118-0.276 0.268-0.548 0.404-0.776 0.159-0.261 0.328-0.516 0.506-0.764l0.050-0.070c0.159-0.212 0.396-0.353 0.658-0.391s0.529 0.030 0.742 0.189c0.212 0.159 0.353 0.396 0.391 0.658s-0.030 0.529-0.189 0.742zM20.8 1.6l-0.006 0.008-0.028 0.038c-0.146 0.2-0.282 0.407-0.408 0.62-0.107 0.171-0.201 0.349-0.282 0.534-0.052 0.12-0.068 0.184-0.074 0.206v0.008c0.023 0.177 0.085 0.346 0.182 0.496 0.15 0.266 0.356 0.544 0.616 0.89l0.020 0.024c0.236 0.316 0.52 0.694 0.74 1.086 0.224 0.4 0.44 0.91 0.44 1.49 0 0.376-0.13 0.736-0.238 0.988-0.116 0.268-0.251 0.527-0.404 0.776-0.156 0.262-0.324 0.517-0.504 0.764l-0.038 0.050-0.010 0.016-0.004 0.004c-0.159 0.212-0.396 0.353-0.658 0.391s-0.529-0.030-0.742-0.189c-0.212-0.159-0.353-0.396-0.391-0.658s0.030-0.529 0.189-0.742l0.006-0.008 0.028-0.038c0.146-0.2 0.282-0.407 0.408-0.62 0.107-0.171 0.201-0.349 0.282-0.534 0.052-0.12 0.068-0.184 0.074-0.206-0.021-0.179-0.083-0.352-0.18-0.504-0.186-0.31-0.392-0.608-0.618-0.89l-0.020-0.024c-0.27-0.345-0.517-0.708-0.74-1.086-0.272-0.451-0.424-0.964-0.44-1.49 0-0.376 0.13-0.736 0.238-0.988 0.118-0.276 0.268-0.548 0.404-0.776 0.159-0.261 0.328-0.516 0.506-0.764l0.050-0.070c0.159-0.212 0.396-0.353 0.658-0.391s0.529 0.030 0.742 0.189c0.212 0.159 0.353 0.396 0.391 0.658s-0.030 0.529-0.189 0.742z"></path>
</symbol>
<symbol id="icon-Petrol" viewBox="0 0 32 32">
<path d="M2 4c0-1.061 0.421-2.078 1.172-2.828s1.768-1.172 2.828-1.172h12c1.061 0 2.078 0.421 2.828 1.172s1.172 1.768 1.172 2.828v16c1.061 0 2.078 0.421 2.828 1.172s1.172 1.768 1.172 2.828v1c0 0.265 0.105 0.52 0.293 0.707s0.442 0.293 0.707 0.293 0.52-0.105 0.707-0.293c0.188-0.188 0.293-0.442 0.293-0.707v-9h-1c-0.265 0-0.52-0.105-0.707-0.293s-0.293-0.442-0.293-0.707v-6.25c0-0.265 0.105-0.52 0.293-0.707s0.442-0.293 0.707-0.293h2.99c-0.022-0.952-0.106-1.788-0.402-2.444-0.158-0.381-0.435-0.702-0.788-0.916-0.368-0.22-0.928-0.39-1.8-0.39-0.265 0-0.52-0.105-0.707-0.293s-0.293-0.442-0.293-0.707 0.105-0.52 0.293-0.707c0.188-0.188 0.442-0.293 0.707-0.293 1.128-0.003 2.069 0.221 2.824 0.672 0.766 0.456 1.268 1.102 1.588 1.814 0.59 1.31 0.588 2.93 0.588 4.162v6.35c0 0.132-0.025 0.262-0.076 0.383s-0.124 0.232-0.217 0.325c-0.093 0.093-0.203 0.167-0.325 0.217s-0.252 0.076-0.383 0.076h-1v9c0 0.796-0.316 1.559-0.879 2.121s-1.326 0.879-2.121 0.879-1.559-0.316-2.121-0.879c-0.563-0.563-0.879-1.326-0.879-2.121v-1c0-0.53-0.211-1.039-0.586-1.414s-0.884-0.586-1.414-0.586v8h1c0.265 0 0.52 0.105 0.707 0.293s0.293 0.442 0.293 0.707-0.105 0.52-0.293 0.707c-0.188 0.188-0.442 0.293-0.707 0.293h-22c-0.265 0-0.52-0.105-0.707-0.293s-0.293-0.442-0.293-0.707 0.105-0.52 0.293-0.707c0.188-0.188 0.442-0.293 0.707-0.293h1v-26zM20 4c0-0.53-0.211-1.039-0.586-1.414s-0.884-0.586-1.414-0.586h-12c-0.53 0-1.039 0.211-1.414 0.586s-0.586 0.884-0.586 1.414v26h16v-26z"></path>
</symbol>
<symbol id="icon-Radio" viewBox="0 0 32 32">
<path d="M14 5c0-0.265 0.105-0.52 0.293-0.707s0.442-0.293 0.707-0.293h14c0.265 0 0.52 0.105 0.707 0.293s0.293 0.442 0.293 0.707v2c0 0.265-0.105 0.52-0.293 0.707s-0.442 0.293-0.707 0.293h-14c-0.265 0-0.52-0.105-0.707-0.293s-0.293-0.442-0.293-0.707v-2zM0 24c0-1.591 0.632-3.117 1.757-4.243s2.651-1.757 4.243-1.757 3.117 0.632 4.243 1.757c1.125 1.125 1.757 2.651 1.757 4.243s-0.632 3.117-1.757 4.243c-1.125 1.125-2.651 1.757-4.243 1.757s-3.117-0.632-4.243-1.757c-1.125-1.125-1.757-2.651-1.757-4.243zM14 21c0-0.265 0.105-0.52 0.293-0.707s0.442-0.293 0.707-0.293h14c0.265 0 0.52 0.105 0.707 0.293s0.293 0.442 0.293 0.707v2c0 0.265-0.105 0.52-0.293 0.707s-0.442 0.293-0.707 0.293h-14c-0.265 0-0.52-0.105-0.707-0.293s-0.293-0.442-0.293-0.707v-2zM14 11c0-0.265 0.105-0.52 0.293-0.707s0.442-0.293 0.707-0.293h10c0.265 0 0.52 0.105 0.707 0.293s0.293 0.442 0.293 0.707-0.105 0.52-0.293 0.707c-0.188 0.188-0.442 0.293-0.707 0.293h-10c-0.265 0-0.52-0.105-0.707-0.293s-0.293-0.442-0.293-0.707zM14 27c0-0.265 0.105-0.52 0.293-0.707s0.442-0.293 0.707-0.293h10c0.265 0 0.52 0.105 0.707 0.293s0.293 0.442 0.293 0.707-0.105 0.52-0.293 0.707c-0.188 0.188-0.442 0.293-0.707 0.293h-10c-0.265 0-0.52-0.105-0.707-0.293s-0.293-0.442-0.293-0.707zM6 2c-0.788 0-1.568 0.155-2.296 0.457s-1.389 0.744-1.947 1.301c-0.557 0.557-0.999 1.219-1.301 1.947s-0.457 1.508-0.457 2.296c0 0.788 0.155 1.568 0.457 2.296s0.744 1.389 1.301 1.947c0.557 0.557 1.219 0.999 1.947 1.301s1.508 0.457 2.296 0.457c1.591 0 3.117-0.632 4.243-1.757s1.757-2.651 1.757-4.243c0-1.591-0.632-3.117-1.757-4.243s-2.651-1.757-4.243-1.757zM6 11c-0.796 0-1.559-0.316-2.121-0.879s-0.879-1.326-0.879-2.121c0-0.796 0.316-1.559 0.879-2.121s1.326-0.879 2.121-0.879c0.796 0 1.559 0.316 2.121 0.879s0.879 1.326 0.879 2.121c0 0.796-0.316 1.559-0.879 2.121s-1.326 0.879-2.121 0.879z"></path>
</symbol>
<symbol id="icon-Kitchen" viewBox="0 0 32 32">
<path stroke-linejoin="miter" stroke-linecap="butt" stroke-miterlimit="4" stroke-width="1.6" d="M4.109 27.91l0 0c0.207 0.933 0.726 1.767 1.471 2.365s1.672 0.924 2.628 0.924l-4.099-3.29zM4.109 27.91l-3.304-14.867c-0-0-0-0-0-0-0.006-0.029-0.006-0.059 0.001-0.088s0.020-0.056 0.039-0.080 0.042-0.042 0.069-0.055c0.027-0.013 0.057-0.020 0.086-0.020h25.999c0 0 0 0 0 0 0.030 0 0.059 0.007 0.086 0.020s0.051 0.032 0.069 0.055 0.032 0.051 0.039 0.080c0.007 0.029 0.007 0.059 0.001 0.088-0 0-0 0-0 0l-0.61 2.734 0.75 0.193c1.306 0.336 2.431 1.167 3.136 2.317s0.936 2.529 0.643 3.846c-0.292 1.317-1.085 2.468-2.211 3.212s-2.496 1.020-3.822 0.772l-0.76-0.142M4.109 27.91l20.212-1.935M24.321 25.975l-0.168 0.755M24.321 25.975l-0.168 0.755M24.153 26.731l-0.262 1.18c0 0 0 0 0 0-0.207 0.933-0.726 1.767-1.472 2.365s-1.672 0.924-2.628 0.924c0 0-0 0-0 0M24.153 26.731l-4.361 4.469M19.792 31.2v0zM26 25.8h0.002c1.156-0.003 2.271-0.423 3.142-1.182s1.439-1.807 1.6-2.952c0.161-1.144-0.097-2.308-0.725-3.278s-1.585-1.681-2.695-2.002l-0.818-0.237-0.185 0.832-1.919 8.626 0.839 0.134c0.251 0.040 0.504 0.060 0.758 0.060zM2.246 13.2h-0.997l3.25 14.623c0 0 0 0 0 0 0.187 0.844 0.657 1.599 1.331 2.14s1.513 0.836 2.378 0.836h11.584c0.865-0 1.703-0.295 2.378-0.836s1.144-1.296 1.331-2.14c0 0 0-0 0-0l3.25-14.623h-24.505z"></path>
<path stroke-linejoin="miter" stroke-linecap="butt" stroke-miterlimit="4" stroke-width="3.2" d="M8.8 1.6l-0.006 0.008-0.028 0.038c-0.146 0.2-0.282 0.407-0.408 0.62-0.107 0.171-0.202 0.349-0.282 0.534-0.052 0.12-0.068 0.184-0.074 0.206v0.008c0.023 0.177 0.085 0.346 0.182 0.496 0.15 0.266 0.356 0.544 0.616 0.89l0.020 0.024c0.236 0.316 0.52 0.694 0.74 1.086 0.224 0.4 0.44 0.91 0.44 1.49 0 0.376-0.13 0.736-0.238 0.988-0.116 0.268-0.251 0.527-0.404 0.776-0.157 0.262-0.326 0.517-0.506 0.764l-0.036 0.050-0.010 0.016-0.004 0.004c-0.159 0.212-0.396 0.353-0.658 0.391s-0.529-0.030-0.742-0.189c-0.212-0.159-0.353-0.396-0.391-0.658s0.030-0.529 0.189-0.742l0.006-0.008 0.028-0.038c0.146-0.2 0.282-0.407 0.408-0.62 0.107-0.171 0.202-0.349 0.282-0.534 0.052-0.12 0.068-0.184 0.074-0.206-0.021-0.179-0.083-0.352-0.18-0.504-0.186-0.31-0.392-0.608-0.618-0.89l-0.020-0.024c-0.27-0.345-0.517-0.708-0.74-1.086-0.272-0.451-0.424-0.964-0.44-1.49 0-0.376 0.13-0.736 0.238-0.988 0.118-0.276 0.268-0.548 0.404-0.776 0.159-0.261 0.328-0.516 0.506-0.764l0.050-0.070c0.159-0.212 0.396-0.353 0.658-0.391s0.529 0.030 0.742 0.189c0.212 0.159 0.353 0.396 0.391 0.658s-0.030 0.529-0.189 0.742zM14.8 1.6l-0.006 0.008-0.028 0.038c-0.146 0.2-0.282 0.407-0.408 0.62-0.107 0.171-0.202 0.349-0.282 0.534-0.052 0.12-0.068 0.184-0.074 0.206v0.008c0.023 0.177 0.085 0.346 0.182 0.496 0.15 0.266 0.356 0.544 0.616 0.89l0.020 0.024c0.236 0.316 0.52 0.694 0.74 1.086 0.224 0.4 0.44 0.91 0.44 1.49 0 0.376-0.13 0.736-0.238 0.988-0.116 0.268-0.251 0.527-0.404 0.776-0.157 0.262-0.326 0.517-0.506 0.764l-0.036 0.050-0.010 0.016-0.004 0.004c-0.159 0.212-0.396 0.353-0.658 0.391s-0.529-0.030-0.742-0.189c-0.212-0.159-0.353-0.396-0.391-0.658s0.030-0.529 0.189-0.742l0.006-0.008 0.028-0.038c0.146-0.2 0.282-0.407 0.408-0.62 0.107-0.171 0.202-0.349 0.282-0.534 0.052-0.12 0.068-0.184 0.074-0.206-0.021-0.179-0.083-0.352-0.18-0.504-0.186-0.31-0.392-0.608-0.618-0.89l-0.020-0.024c-0.27-0.345-0.517-0.708-0.74-1.086-0.272-0.451-0.424-0.964-0.44-1.49 0-0.376 0.13-0.736 0.238-0.988 0.118-0.276 0.268-0.548 0.404-0.776 0.159-0.261 0.328-0.516 0.506-0.764l0.050-0.070c0.159-0.212 0.396-0.353 0.658-0.391s0.529 0.030 0.742 0.189c0.212 0.159 0.353 0.396 0.391 0.658s-0.030 0.529-0.189 0.742zM20.8 1.6l-0.006 0.008-0.028 0.038c-0.146 0.2-0.282 0.407-0.408 0.62-0.107 0.171-0.201 0.349-0.282 0.534-0.052 0.12-0.068 0.184-0.074 0.206v0.008c0.023 0.177 0.085 0.346 0.182 0.496 0.15 0.266 0.356 0.544 0.616 0.89l0.020 0.024c0.236 0.316 0.52 0.694 0.74 1.086 0.224 0.4 0.44 0.91 0.44 1.49 0 0.376-0.13 0.736-0.238 0.988-0.116 0.268-0.251 0.527-0.404 0.776-0.156 0.262-0.324 0.517-0.504 0.764l-0.038 0.050-0.010 0.016-0.004 0.004c-0.159 0.212-0.396 0.353-0.658 0.391s-0.529-0.030-0.742-0.189c-0.212-0.159-0.353-0.396-0.391-0.658s0.030-0.529 0.189-0.742l0.006-0.008 0.028-0.038c0.146-0.2 0.282-0.407 0.408-0.62 0.107-0.171 0.201-0.349 0.282-0.534 0.052-0.12 0.068-0.184 0.074-0.206-0.021-0.179-0.083-0.352-0.18-0.504-0.186-0.31-0.392-0.608-0.618-0.89l-0.020-0.024c-0.27-0.345-0.517-0.708-0.74-1.086-0.272-0.451-0.424-0.964-0.44-1.49 0-0.376 0.13-0.736 0.238-0.988 0.118-0.276 0.268-0.548 0.404-0.776 0.159-0.261 0.328-0.516 0.506-0.764l0.050-0.070c0.159-0.212 0.396-0.353 0.658-0.391s0.529 0.030 0.742 0.189c0.212 0.159 0.353 0.396 0.391 0.658s-0.030 0.529-0.189 0.742z"></path>
</symbol>
<symbol id="icon-links-divider" viewBox="0 0 20992 32">
<path fill="none" stroke="#dadde1" style="stroke: var(--color1, #dadde1)" stroke-linejoin="miter" stroke-linecap="butt" stroke-miterlimit="4" stroke-width="16" d="M0 16h20992"></path>
</symbol>
<symbol id="icon-activeLink" viewBox="0 0 453 32">
<path fill="none" stroke="#e44848" style="stroke: var(--color1, #e44848)" stroke-linejoin="miter" stroke-linecap="butt" stroke-miterlimit="4" stroke-width="26.6667" d="M0 16h453.333"></path>
</symbol>
</defs>
</svg>
