<svg aria-hidden="true" style="position: absolute; width: 0; height: 0; overflow: hidden;" version="1.1" xmlns="http://www.w3.org/2000/svg" xmlns:xlink="http://www.w3.org/1999/xlink">
<defs>
<symbol id="icon-Alcove" viewBox="0 0 26 32">
<path d="M9 2v2h-2v-2h2zM10 14v-2c0-0.265-0.105-0.52-0.293-0.707s-0.442-0.293-0.707-0.293h-2c-0.265 0-0.52 0.105-0.707 0.293s-0.293 0.442-0.293 0.707v2c0 0.265 0.105 0.52 0.293 0.707s0.442 0.293 0.707 0.293h2c0.265 0 0.52-0.105 0.707-0.293s0.293-0.442 0.293-0.707zM10 9v-2c0-0.265-0.105-0.52-0.293-0.707s-0.442-0.293-0.707-0.293h-2c-0.265 0-0.52 0.105-0.707 0.293s-0.293 0.442-0.293 0.707v2c0 0.265 0.105 0.52 0.293 0.707s0.442 0.293 0.707 0.293h2c0.265 0 0.52-0.105 0.707-0.293s0.293-0.442 0.293-0.707zM10 4v-2c0-0.265-0.105-0.52-0.293-0.707s-0.442-0.293-0.707-0.293h-2c-0.265 0-0.52 0.105-0.707 0.293s-0.293 0.442-0.293 0.707v2c0 0.265 0.105 0.52 0.293 0.707s0.442 0.293 0.707 0.293h2c0.265 0 0.52-0.105 0.707-0.293s0.293-0.442 0.293-0.707zM15 14v-2c0-0.265-0.105-0.52-0.293-0.707s-0.442-0.293-0.707-0.293h-2c-0.265 0-0.52 0.105-0.707 0.293s-0.293 0.442-0.293 0.707v2c0 0.265 0.105 0.52 0.293 0.707s0.442 0.293 0.707 0.293h2c0.265 0 0.52-0.105 0.707-0.293s0.293-0.442 0.293-0.707zM15 9v-2c0-0.265-0.105-0.52-0.293-0.707s-0.442-0.293-0.707-0.293h-2c-0.265 0-0.52 0.105-0.707 0.293s-0.293 0.442-0.293 0.707v2c0 0.265 0.105 0.52 0.293 0.707s0.442 0.293 0.707 0.293h2c0.265 0 0.52-0.105 0.707-0.293s0.293-0.442 0.293-0.707zM15 4v-2c0-0.265-0.105-0.52-0.293-0.707s-0.442-0.293-0.707-0.293h-2c-0.265 0-0.52 0.105-0.707 0.293s-0.293 0.442-0.293 0.707v2c0 0.265 0.105 0.52 0.293 0.707s0.442 0.293 0.707 0.293h2c0.265 0 0.52-0.105 0.707-0.293s0.293-0.442 0.293-0.707zM14 2v2h-2v-2h2zM19 2v2h-2v-2h2zM9 7v2h-2v-2h2zM14 7v2h-2v-2h2zM19 7h-2v2h2v-2zM9 12v2h-2v-2h2zM14 12v2h-2v-2h2zM19 12v2h-2v-2h2zM17 1c-0.265 0-0.52 0.105-0.707 0.293s-0.293 0.442-0.293 0.707v2c0 0.265 0.105 0.52 0.293 0.707s0.442 0.293 0.707 0.293h2c0.265 0 0.52-0.105 0.707-0.293s0.293-0.442 0.293-0.707v-2c0-0.265-0.105-0.52-0.293-0.707s-0.442-0.293-0.707-0.293h-2zM16 7c0-0.265 0.105-0.52 0.293-0.707s0.442-0.293 0.707-0.293h2c0.265 0 0.52 0.105 0.707 0.293s0.293 0.442 0.293 0.707v2c0 0.265-0.105 0.52-0.293 0.707s-0.442 0.293-0.707 0.293h-2c-0.265 0-0.52-0.105-0.707-0.293s-0.293-0.442-0.293-0.707v-2zM17 11c-0.265 0-0.52 0.105-0.707 0.293s-0.293 0.442-0.293 0.707v2c0 0.265 0.105 0.52 0.293 0.707s0.442 0.293 0.707 0.293h2c0.265 0 0.52-0.105 0.707-0.293s0.293-0.442 0.293-0.707v-2c0-0.265-0.105-0.52-0.293-0.707s-0.442-0.293-0.707-0.293h-2z"></path>
<path d="M1.289 29h-0.932l2.094-5.818h1.014l2.094 5.818h-0.932l-1.645-4.761h-0.045l-1.648 4.761zM1.446 26.722h3.023v0.739h-3.023v-0.739zM7.141 23.182v5.818h-0.849v-5.818h0.849zM10.081 29.088c-0.422 0-0.786-0.096-1.091-0.287-0.303-0.193-0.536-0.459-0.699-0.798s-0.244-0.727-0.244-1.165c0-0.443 0.083-0.834 0.25-1.173 0.167-0.341 0.402-0.607 0.705-0.798s0.66-0.287 1.071-0.287c0.331 0 0.627 0.062 0.886 0.185 0.259 0.121 0.469 0.292 0.628 0.511 0.161 0.22 0.257 0.476 0.287 0.77h-0.827c-0.045-0.205-0.15-0.381-0.313-0.528-0.161-0.148-0.377-0.222-0.648-0.222-0.237 0-0.444 0.063-0.622 0.188-0.176 0.123-0.313 0.299-0.412 0.528-0.098 0.227-0.148 0.496-0.148 0.807 0 0.318 0.048 0.593 0.145 0.824s0.233 0.41 0.409 0.537c0.178 0.127 0.387 0.19 0.628 0.19 0.161 0 0.307-0.029 0.438-0.088 0.133-0.061 0.243-0.147 0.332-0.259 0.091-0.112 0.154-0.246 0.19-0.403h0.827c-0.030 0.282-0.122 0.534-0.276 0.756s-0.359 0.396-0.617 0.523c-0.256 0.127-0.556 0.19-0.901 0.19zM14.581 29.088c-0.409 0-0.766-0.094-1.071-0.281s-0.542-0.45-0.71-0.787c-0.169-0.337-0.253-0.731-0.253-1.182 0-0.453 0.084-0.848 0.253-1.188s0.405-0.602 0.71-0.79c0.305-0.188 0.662-0.281 1.071-0.281s0.766 0.094 1.071 0.281c0.305 0.188 0.542 0.451 0.71 0.79s0.253 0.735 0.253 1.188c0 0.451-0.084 0.845-0.253 1.182s-0.405 0.599-0.71 0.787c-0.305 0.188-0.662 0.281-1.071 0.281zM14.583 28.375c0.265 0 0.485-0.070 0.659-0.21s0.303-0.327 0.386-0.56c0.085-0.233 0.128-0.49 0.128-0.77 0-0.278-0.043-0.534-0.128-0.767-0.083-0.235-0.212-0.423-0.386-0.565s-0.394-0.213-0.659-0.213c-0.267 0-0.489 0.071-0.665 0.213-0.174 0.142-0.304 0.331-0.389 0.565-0.083 0.233-0.125 0.489-0.125 0.767 0 0.28 0.042 0.537 0.125 0.77 0.085 0.233 0.215 0.419 0.389 0.56 0.176 0.14 0.398 0.21 0.665 0.21zM21.107 24.636l-1.582 4.364h-0.909l-1.585-4.364h0.912l1.105 3.358h0.045l1.102-3.358h0.912zM23.598 29.088c-0.43 0-0.8-0.092-1.111-0.276-0.309-0.186-0.547-0.446-0.716-0.781-0.167-0.337-0.25-0.732-0.25-1.185 0-0.447 0.083-0.841 0.25-1.182 0.169-0.341 0.403-0.607 0.705-0.798 0.303-0.191 0.657-0.287 1.063-0.287 0.246 0 0.485 0.041 0.716 0.122s0.438 0.209 0.622 0.384c0.184 0.174 0.329 0.401 0.435 0.679 0.106 0.276 0.159 0.613 0.159 1.009v0.301h-3.469v-0.636h2.636c0-0.224-0.045-0.421-0.136-0.594-0.091-0.174-0.219-0.312-0.384-0.412-0.163-0.1-0.354-0.151-0.574-0.151-0.239 0-0.447 0.059-0.625 0.176-0.176 0.116-0.313 0.267-0.409 0.455-0.095 0.186-0.142 0.387-0.142 0.605v0.497c0 0.292 0.051 0.54 0.153 0.744 0.104 0.205 0.249 0.361 0.435 0.469 0.186 0.106 0.402 0.159 0.651 0.159 0.161 0 0.308-0.023 0.44-0.068 0.133-0.047 0.247-0.117 0.344-0.21s0.17-0.207 0.222-0.344l0.804 0.145c-0.064 0.237-0.18 0.444-0.347 0.622-0.165 0.176-0.372 0.313-0.622 0.412-0.248 0.097-0.531 0.145-0.849 0.145z"></path>
</symbol>
<symbol id="icon-Fully-Integrated" viewBox="0 0 29 32">
<path d="M9.455 1.818c0-0.289 0.115-0.567 0.32-0.771s0.482-0.32 0.771-0.32h2.182c0.289 0 0.567 0.115 0.771 0.32s0.32 0.482 0.32 0.771v2.182c0 0.289-0.115 0.567-0.32 0.771s-0.482 0.32-0.771 0.32h-2.182c-0.289 0-0.567-0.115-0.771-0.32s-0.32-0.482-0.32-0.771v-2.182zM10.545 1.455c-0.096 0-0.189 0.038-0.257 0.107s-0.107 0.161-0.107 0.257v2.182c0 0.096 0.038 0.189 0.107 0.257s0.161 0.106 0.257 0.106h2.182c0.096 0 0.189-0.038 0.257-0.106s0.107-0.161 0.107-0.257v-2.182c0-0.096-0.038-0.189-0.107-0.257s-0.161-0.107-0.257-0.107h-2.182zM15.273 1.818c0-0.289 0.115-0.567 0.32-0.771s0.482-0.32 0.771-0.32h2.182c0.289 0 0.567 0.115 0.771 0.32s0.32 0.482 0.32 0.771v2.182c0 0.289-0.115 0.567-0.32 0.771s-0.482 0.32-0.771 0.32h-2.182c-0.289 0-0.567-0.115-0.771-0.32s-0.32-0.482-0.32-0.771v-2.182zM16.364 1.455c-0.096 0-0.189 0.038-0.257 0.107s-0.107 0.161-0.107 0.257v2.182c0 0.096 0.038 0.189 0.107 0.257s0.161 0.106 0.257 0.106h2.182c0.096 0 0.189-0.038 0.257-0.106s0.107-0.161 0.107-0.257v-2.182c0-0.096-0.038-0.189-0.107-0.257s-0.161-0.107-0.257-0.107h-2.182zM9.455 7.636c0-0.289 0.115-0.567 0.32-0.771s0.482-0.32 0.771-0.32h2.182c0.289 0 0.567 0.115 0.771 0.32s0.32 0.482 0.32 0.771v2.182c0 0.289-0.115 0.567-0.32 0.771s-0.482 0.32-0.771 0.32h-2.182c-0.289 0-0.567-0.115-0.771-0.32s-0.32-0.482-0.32-0.771v-2.182zM10.545 7.273c-0.096 0-0.189 0.038-0.257 0.106s-0.107 0.161-0.107 0.257v2.182c0 0.096 0.038 0.189 0.107 0.257s0.161 0.107 0.257 0.107h2.182c0.096 0 0.189-0.038 0.257-0.107s0.107-0.161 0.107-0.257v-2.182c0-0.096-0.038-0.189-0.107-0.257s-0.161-0.106-0.257-0.106h-2.182zM15.273 7.636c0-0.289 0.115-0.567 0.32-0.771s0.482-0.32 0.771-0.32h2.182c0.289 0 0.567 0.115 0.771 0.32s0.32 0.482 0.32 0.771v2.182c0 0.289-0.115 0.567-0.32 0.771s-0.482 0.32-0.771 0.32h-2.182c-0.289 0-0.567-0.115-0.771-0.32s-0.32-0.482-0.32-0.771v-2.182zM16.364 7.273c-0.096 0-0.189 0.038-0.257 0.106s-0.107 0.161-0.107 0.257v2.182c0 0.096 0.038 0.189 0.107 0.257s0.161 0.107 0.257 0.107h2.182c0.096 0 0.189-0.038 0.257-0.107s0.107-0.161 0.107-0.257v-2.182c0-0.096-0.038-0.189-0.107-0.257s-0.161-0.106-0.257-0.106h-2.182z"></path>
<path d="M8.651 21.091v-4.231h2.624v0.55h-1.986v1.289h1.798v0.547h-1.798v1.845h-0.638zM13.793 19.775v-1.857h0.62v3.174h-0.607v-0.55h-0.033c-0.073 0.169-0.19 0.311-0.351 0.424-0.16 0.112-0.359 0.167-0.597 0.167-0.204 0-0.384-0.045-0.541-0.134-0.156-0.091-0.278-0.225-0.368-0.403-0.088-0.178-0.132-0.397-0.132-0.659v-2.019h0.618v1.944c0 0.216 0.060 0.388 0.18 0.517s0.275 0.192 0.467 0.192c0.116 0 0.231-0.029 0.345-0.087 0.116-0.058 0.211-0.145 0.287-0.262 0.077-0.117 0.115-0.266 0.114-0.446zM15.832 16.86v4.231h-0.618v-4.231h0.618zM17.251 16.86v4.231h-0.618v-4.231h0.618zM18.444 22.281c-0.092 0-0.176-0.008-0.252-0.023-0.076-0.014-0.132-0.029-0.169-0.045l0.149-0.506c0.113 0.030 0.213 0.043 0.302 0.039s0.166-0.037 0.233-0.099c0.069-0.062 0.13-0.163 0.182-0.304l0.076-0.211-1.161-3.215h0.661l0.804 2.463h0.033l0.804-2.463h0.663l-1.308 3.597c-0.061 0.165-0.138 0.305-0.231 0.419-0.094 0.116-0.205 0.202-0.335 0.26s-0.28 0.087-0.45 0.087zM1.337 25.587v4.231h-0.638v-4.231h0.638zM2.805 27.934v1.884h-0.618v-3.174h0.593v0.517h0.039c0.073-0.168 0.187-0.303 0.343-0.405 0.157-0.102 0.355-0.153 0.593-0.153 0.216 0 0.406 0.045 0.568 0.136 0.163 0.090 0.289 0.223 0.378 0.401s0.134 0.397 0.134 0.659v2.019h-0.618v-1.944c0-0.23-0.060-0.41-0.18-0.539-0.12-0.131-0.284-0.196-0.494-0.196-0.143 0-0.271 0.031-0.382 0.093-0.11 0.062-0.198 0.153-0.262 0.273-0.063 0.118-0.095 0.262-0.095 0.43zM7.117 26.645v0.496h-1.734v-0.496h1.734zM5.849 25.884h0.618v3.002c0 0.12 0.018 0.21 0.054 0.271 0.036 0.059 0.082 0.1 0.138 0.122 0.058 0.021 0.12 0.031 0.188 0.031 0.050 0 0.093-0.003 0.13-0.010s0.066-0.012 0.087-0.017l0.112 0.51c-0.036 0.014-0.087 0.028-0.153 0.041-0.066 0.015-0.149 0.023-0.248 0.025-0.163 0.003-0.314-0.026-0.455-0.087s-0.254-0.154-0.341-0.281c-0.087-0.127-0.13-0.286-0.13-0.477v-3.13zM9.105 29.882c-0.313 0-0.582-0.067-0.808-0.2-0.225-0.135-0.398-0.324-0.521-0.568-0.121-0.245-0.182-0.532-0.182-0.862 0-0.325 0.061-0.612 0.182-0.86 0.123-0.248 0.293-0.441 0.512-0.581 0.22-0.139 0.478-0.209 0.773-0.209 0.179 0 0.353 0.030 0.521 0.089s0.319 0.152 0.453 0.279c0.134 0.127 0.239 0.291 0.316 0.494 0.077 0.201 0.116 0.446 0.116 0.733v0.219h-2.523v-0.463h1.917c0-0.163-0.033-0.306-0.099-0.432-0.066-0.127-0.159-0.227-0.279-0.3-0.118-0.073-0.258-0.11-0.417-0.11-0.174 0-0.325 0.043-0.455 0.128-0.128 0.084-0.227 0.194-0.298 0.331-0.069 0.135-0.103 0.282-0.103 0.44v0.362c0 0.212 0.037 0.393 0.112 0.541 0.076 0.149 0.181 0.262 0.316 0.341 0.135 0.077 0.293 0.116 0.473 0.116 0.117 0 0.224-0.017 0.32-0.050 0.096-0.034 0.18-0.085 0.25-0.153s0.124-0.151 0.161-0.25l0.585 0.105c-0.047 0.172-0.131 0.323-0.252 0.452-0.12 0.128-0.271 0.228-0.452 0.3-0.18 0.070-0.386 0.105-0.618 0.105zM12.454 31.074c-0.252 0-0.469-0.033-0.651-0.099-0.18-0.066-0.328-0.154-0.442-0.262s-0.2-0.228-0.256-0.357l0.531-0.219c0.037 0.061 0.087 0.125 0.149 0.192 0.063 0.069 0.149 0.127 0.256 0.176 0.109 0.048 0.249 0.072 0.419 0.072 0.234 0 0.428-0.057 0.581-0.172 0.153-0.113 0.229-0.293 0.229-0.541v-0.624h-0.039c-0.037 0.067-0.091 0.143-0.161 0.225-0.069 0.083-0.164 0.154-0.285 0.215s-0.279 0.091-0.473 0.091c-0.251 0-0.477-0.059-0.678-0.176-0.2-0.118-0.358-0.293-0.475-0.523-0.116-0.231-0.174-0.516-0.174-0.853s0.057-0.627 0.171-0.868c0.116-0.241 0.274-0.426 0.475-0.554 0.201-0.13 0.429-0.194 0.684-0.194 0.197 0 0.356 0.033 0.477 0.099 0.121 0.065 0.216 0.14 0.283 0.227 0.069 0.087 0.122 0.163 0.159 0.229h0.045v-0.514h0.605v3.244c0 0.273-0.063 0.497-0.19 0.672s-0.298 0.304-0.514 0.388c-0.215 0.084-0.457 0.126-0.727 0.126zM12.447 29.258c0.178 0 0.328-0.041 0.45-0.124 0.124-0.084 0.218-0.204 0.281-0.36 0.065-0.157 0.097-0.345 0.097-0.564 0-0.213-0.032-0.401-0.095-0.564s-0.156-0.289-0.279-0.38c-0.123-0.092-0.274-0.138-0.455-0.138-0.186 0-0.341 0.048-0.465 0.145-0.124 0.095-0.218 0.224-0.281 0.388-0.062 0.164-0.093 0.347-0.093 0.55 0 0.208 0.032 0.39 0.095 0.548s0.157 0.28 0.281 0.368c0.125 0.088 0.28 0.132 0.463 0.132zM14.685 29.818v-3.174h0.597v0.504h0.033c0.058-0.171 0.16-0.305 0.306-0.403 0.147-0.099 0.314-0.149 0.5-0.149 0.039 0 0.084 0.001 0.136 0.004 0.054 0.003 0.096 0.006 0.126 0.010v0.591c-0.025-0.007-0.069-0.014-0.132-0.023-0.063-0.010-0.127-0.014-0.19-0.014-0.146 0-0.276 0.031-0.39 0.093-0.113 0.061-0.202 0.145-0.269 0.254-0.066 0.107-0.099 0.23-0.099 0.368v1.938h-0.618zM17.784 29.888c-0.201 0-0.383-0.037-0.545-0.112-0.163-0.076-0.291-0.185-0.386-0.328-0.094-0.143-0.14-0.319-0.14-0.527 0-0.179 0.034-0.326 0.103-0.442s0.162-0.207 0.279-0.275c0.117-0.067 0.248-0.118 0.393-0.153s0.292-0.061 0.442-0.078c0.19-0.022 0.344-0.040 0.463-0.054 0.118-0.015 0.205-0.039 0.258-0.072s0.081-0.087 0.081-0.161v-0.014c0-0.18-0.051-0.32-0.153-0.419-0.101-0.099-0.251-0.149-0.45-0.149-0.208 0-0.372 0.046-0.492 0.138-0.118 0.091-0.2 0.192-0.246 0.304l-0.581-0.132c0.069-0.193 0.169-0.349 0.302-0.467 0.134-0.12 0.287-0.207 0.461-0.26 0.174-0.055 0.356-0.083 0.548-0.083 0.127 0 0.261 0.015 0.403 0.045 0.143 0.029 0.277 0.083 0.401 0.161 0.125 0.078 0.228 0.191 0.308 0.337 0.080 0.145 0.12 0.333 0.12 0.564v2.107h-0.603v-0.434h-0.025c-0.040 0.080-0.1 0.158-0.18 0.236s-0.183 0.141-0.308 0.192c-0.125 0.051-0.276 0.076-0.45 0.076zM17.918 29.393c0.171 0 0.317-0.034 0.438-0.101 0.123-0.067 0.216-0.156 0.279-0.264 0.065-0.11 0.097-0.228 0.097-0.353v-0.409c-0.022 0.022-0.065 0.043-0.128 0.062-0.062 0.018-0.133 0.034-0.213 0.048-0.080 0.012-0.158 0.024-0.233 0.035-0.076 0.010-0.139 0.018-0.19 0.025-0.12 0.015-0.229 0.041-0.329 0.076-0.098 0.036-0.176 0.087-0.236 0.155-0.058 0.066-0.087 0.154-0.087 0.264 0 0.153 0.056 0.269 0.169 0.347 0.113 0.077 0.257 0.116 0.432 0.116zM21.625 26.645v0.496h-1.733v-0.496h1.733zM20.357 25.884h0.618v3.002c0 0.12 0.018 0.21 0.054 0.271 0.036 0.059 0.082 0.1 0.138 0.122 0.058 0.021 0.12 0.031 0.188 0.031 0.050 0 0.093-0.003 0.13-0.010s0.066-0.012 0.087-0.017l0.112 0.51c-0.036 0.014-0.087 0.028-0.153 0.041-0.066 0.015-0.149 0.023-0.248 0.025-0.163 0.003-0.314-0.026-0.455-0.087s-0.254-0.154-0.341-0.281c-0.087-0.127-0.13-0.286-0.13-0.477v-3.13zM23.613 29.882c-0.313 0-0.582-0.067-0.808-0.2-0.224-0.135-0.398-0.324-0.521-0.568-0.121-0.245-0.182-0.532-0.182-0.862 0-0.325 0.061-0.612 0.182-0.86 0.123-0.248 0.293-0.441 0.512-0.581 0.22-0.139 0.478-0.209 0.773-0.209 0.179 0 0.353 0.030 0.521 0.089s0.319 0.152 0.452 0.279c0.134 0.127 0.239 0.291 0.316 0.494 0.077 0.201 0.116 0.446 0.116 0.733v0.219h-2.523v-0.463h1.917c0-0.163-0.033-0.306-0.099-0.432-0.066-0.127-0.159-0.227-0.279-0.3-0.118-0.073-0.258-0.11-0.417-0.11-0.174 0-0.325 0.043-0.455 0.128-0.128 0.084-0.227 0.194-0.298 0.331-0.069 0.135-0.103 0.282-0.103 0.44v0.362c0 0.212 0.037 0.393 0.112 0.541 0.076 0.149 0.181 0.262 0.316 0.341 0.135 0.077 0.293 0.116 0.473 0.116 0.117 0 0.224-0.017 0.32-0.050 0.096-0.034 0.18-0.085 0.25-0.153s0.124-0.151 0.161-0.25l0.585 0.105c-0.047 0.172-0.131 0.323-0.252 0.452-0.12 0.128-0.271 0.228-0.452 0.3-0.18 0.070-0.386 0.105-0.618 0.105zM26.819 29.88c-0.256 0-0.485-0.065-0.686-0.196-0.2-0.132-0.357-0.32-0.471-0.564-0.113-0.245-0.169-0.539-0.169-0.882s0.057-0.636 0.172-0.88c0.116-0.244 0.274-0.43 0.475-0.56s0.429-0.194 0.684-0.194c0.197 0 0.355 0.033 0.475 0.099 0.121 0.065 0.215 0.14 0.281 0.227 0.067 0.087 0.12 0.163 0.157 0.229h0.037v-1.572h0.618v4.231h-0.603v-0.494h-0.052c-0.037 0.068-0.091 0.145-0.161 0.231-0.069 0.087-0.164 0.163-0.285 0.227s-0.278 0.097-0.471 0.097zM26.955 29.353c0.178 0 0.328-0.047 0.45-0.14 0.124-0.095 0.218-0.227 0.281-0.395 0.065-0.168 0.097-0.364 0.097-0.587 0-0.22-0.032-0.413-0.095-0.579s-0.156-0.294-0.279-0.386c-0.123-0.092-0.274-0.138-0.455-0.138-0.186 0-0.341 0.048-0.465 0.145s-0.218 0.228-0.281 0.395c-0.062 0.167-0.093 0.355-0.093 0.564 0 0.212 0.032 0.403 0.095 0.572s0.157 0.304 0.281 0.403c0.125 0.098 0.28 0.147 0.463 0.147z"></path>
</symbol>
<symbol id="icon-Van" viewBox="0 0 37 32">
<path d="M17.306 6.204h-3.265v9.143h3.265v-9.143zM23.184 6.204h-3.265v3.265h3.265v-3.265zM23.184 12.082v3.265h-3.265v-3.265h3.265zM13.388 6.204c0-0.173 0.069-0.339 0.191-0.462s0.289-0.191 0.462-0.191h3.265c0.173 0 0.339 0.069 0.462 0.191s0.191 0.289 0.191 0.462v9.143c0 0.173-0.069 0.339-0.191 0.462s-0.289 0.191-0.462 0.191h-3.265c-0.173 0-0.339-0.069-0.462-0.191s-0.191-0.289-0.191-0.462v-9.143zM19.265 6.204c0-0.173 0.069-0.339 0.191-0.462s0.289-0.191 0.462-0.191h3.265c0.173 0 0.339 0.069 0.462 0.191s0.191 0.289 0.191 0.462v3.265c0 0.173-0.069 0.339-0.191 0.462s-0.289 0.191-0.462 0.191h-3.265c-0.173 0-0.339-0.069-0.462-0.191s-0.191-0.289-0.191-0.462v-3.265zM19.918 11.429c-0.173 0-0.339 0.069-0.462 0.191s-0.191 0.289-0.191 0.462v3.265c0 0.173 0.069 0.339 0.191 0.462s0.289 0.191 0.462 0.191h3.265c0.173 0 0.339-0.069 0.462-0.191s0.191-0.289 0.191-0.462v-3.265c0-0.173-0.069-0.339-0.191-0.462s-0.289-0.191-0.462-0.191h-3.265z"></path>
<path d="M14.651 20.69l1.058 3.095h0.043l1.058-3.095h0.62l-1.367 3.8h-0.662l-1.367-3.8h0.62zM18.455 24.553c-0.181 0-0.344-0.033-0.49-0.1-0.146-0.068-0.262-0.166-0.347-0.295-0.084-0.129-0.126-0.286-0.126-0.473 0-0.161 0.031-0.293 0.093-0.397s0.145-0.186 0.25-0.247c0.105-0.061 0.223-0.106 0.353-0.137s0.262-0.054 0.397-0.070c0.171-0.020 0.309-0.036 0.416-0.048 0.106-0.014 0.184-0.035 0.232-0.065s0.072-0.078 0.072-0.145v-0.013c0-0.162-0.046-0.288-0.137-0.377-0.090-0.089-0.225-0.134-0.404-0.134-0.187 0-0.334 0.041-0.442 0.124-0.106 0.082-0.18 0.173-0.221 0.273l-0.521-0.119c0.062-0.173 0.152-0.313 0.271-0.419 0.12-0.108 0.258-0.186 0.414-0.234 0.156-0.049 0.32-0.074 0.492-0.074 0.114 0 0.234 0.014 0.362 0.041 0.129 0.026 0.249 0.074 0.36 0.145 0.113 0.070 0.205 0.171 0.276 0.302 0.072 0.13 0.108 0.299 0.108 0.506v1.892h-0.542v-0.39h-0.022c-0.036 0.072-0.090 0.142-0.161 0.212s-0.164 0.127-0.276 0.173c-0.113 0.046-0.247 0.069-0.404 0.069zM18.575 24.108c0.153 0 0.284-0.030 0.393-0.091 0.11-0.061 0.194-0.14 0.25-0.237 0.058-0.099 0.087-0.205 0.087-0.317v-0.367c-0.020 0.020-0.058 0.038-0.115 0.056-0.056 0.016-0.119 0.030-0.191 0.043-0.072 0.011-0.142 0.022-0.21 0.032-0.068 0.009-0.125 0.016-0.171 0.022-0.108 0.014-0.206 0.036-0.295 0.069-0.088 0.032-0.158 0.079-0.212 0.139-0.052 0.059-0.078 0.139-0.078 0.238 0 0.137 0.051 0.241 0.152 0.312 0.101 0.069 0.231 0.104 0.388 0.104zM21.129 22.798v1.692h-0.555v-2.85h0.532v0.464h0.035c0.066-0.151 0.168-0.272 0.308-0.364 0.141-0.092 0.319-0.137 0.532-0.137 0.194 0 0.364 0.041 0.51 0.122 0.146 0.080 0.259 0.2 0.34 0.36s0.121 0.357 0.121 0.592v1.813h-0.555v-1.746c0-0.207-0.054-0.368-0.161-0.484-0.108-0.118-0.255-0.176-0.443-0.176-0.129 0-0.243 0.028-0.343 0.084-0.099 0.056-0.177 0.137-0.236 0.245-0.057 0.106-0.085 0.235-0.085 0.386z"></path>
</symbol>
<symbol id="icon-TV" viewBox="0 0 37 32">
<path d="M13.388 8.163c0 0 0-1.306 1.306-1.306h7.837c0 0 1.306 0 1.306 1.306v3.918c0 0 0 1.306-1.306 1.306h-2.612c0 0.435 0.054 0.762 0.163 0.98h0.49c0.087 0 0.17 0.034 0.231 0.096s0.096 0.144 0.096 0.231c0 0.087-0.034 0.17-0.096 0.231s-0.144 0.096-0.231 0.096h-3.918c-0.087 0-0.17-0.034-0.231-0.096s-0.096-0.144-0.096-0.231c0-0.087 0.034-0.17 0.096-0.231s0.144-0.096 0.231-0.096h0.49c0.109-0.218 0.163-0.544 0.163-0.98h-2.612c0 0-1.306 0-1.306-1.306v-3.918zM14.301 7.605c-0.072 0.050-0.129 0.118-0.166 0.197-0.055 0.115-0.087 0.24-0.094 0.368v3.912c0 0.212 0.051 0.328 0.095 0.393 0.046 0.068 0.111 0.123 0.197 0.166 0.11 0.053 0.229 0.084 0.351 0.093l0.016 0.001h7.83c0.212 0 0.328-0.051 0.393-0.095 0.072-0.050 0.129-0.118 0.166-0.197 0.053-0.11 0.084-0.229 0.093-0.351l0.001-0.016v-3.912c0-0.212-0.051-0.328-0.095-0.393-0.050-0.072-0.118-0.129-0.197-0.166-0.115-0.055-0.24-0.087-0.368-0.094h-7.83c-0.212 0-0.328 0.051-0.393 0.095z"></path>
<path d="M15.325 21.184v-0.494h2.941v0.494h-1.186v3.306h-0.571v-3.306h-1.184zM19.221 20.69l1.058 3.095h0.043l1.058-3.095h0.62l-1.367 3.8h-0.662l-1.367-3.8h0.62z"></path>
</symbol>
<symbol id="icon-Bathroom" viewBox="0 0 37 32">
<path d="M18.096 6.073c0.313-0.33 0.516-0.522 0.516-0.522 0.071 0.237 0.152 0.463 0.242 0.678 0.53 1.271 1.354 2.188 2.088 3.004 0.855 0.952 1.588 1.768 1.588 2.849 0 1.039-0.413 2.036-1.148 2.771s-1.732 1.148-2.771 1.148-2.036-0.413-2.771-1.148c-0.735-0.735-1.148-1.732-1.148-2.771 0-2.176 2.338-4.887 3.402-6.008zM18.366 6.74c-0.42 0.454-0.818 0.926-1.194 1.416-0.474 0.62-0.938 1.311-1.28 2.005-0.346 0.701-0.545 1.357-0.545 1.92 0 0.866 0.344 1.697 0.956 2.309s1.443 0.956 2.309 0.956 1.697-0.344 2.309-0.956c0.612-0.612 0.956-1.443 0.956-2.309 0-0.784-0.52-1.409-1.424-2.416l-0.020-0.021c-0.679-0.756-1.495-1.663-2.068-2.904z"></path>
<path d="M16.361 10.629c0.535-1.072 1.121-1.798 1.367-2.044l0.462 0.462c-0.189 0.189-0.737 0.856-1.245 1.874l-0.584-0.293z"></path>
<path d="M6.943 24.49v-3.8h1.391c0.27 0 0.493 0.045 0.67 0.134 0.177 0.088 0.309 0.207 0.397 0.358 0.088 0.15 0.132 0.319 0.132 0.506 0 0.158-0.029 0.292-0.087 0.401-0.058 0.108-0.136 0.194-0.234 0.26-0.097 0.064-0.203 0.111-0.319 0.141v0.037c0.126 0.006 0.249 0.047 0.369 0.122 0.121 0.074 0.221 0.18 0.301 0.317s0.119 0.304 0.119 0.501c0 0.194-0.046 0.369-0.137 0.523-0.090 0.153-0.23 0.275-0.419 0.366-0.189 0.089-0.431 0.134-0.725 0.134h-1.456zM7.516 23.998h0.827c0.275 0 0.471-0.053 0.59-0.16s0.178-0.239 0.178-0.399c0-0.12-0.030-0.23-0.091-0.33s-0.147-0.18-0.26-0.239c-0.111-0.059-0.244-0.089-0.397-0.089h-0.848v1.217zM7.516 22.334h0.768c0.129 0 0.244-0.025 0.347-0.074 0.104-0.049 0.186-0.119 0.247-0.208 0.062-0.090 0.093-0.197 0.093-0.319 0-0.157-0.055-0.289-0.165-0.395s-0.279-0.16-0.507-0.16h-0.783v1.156zM11.12 24.553c-0.181 0-0.344-0.033-0.49-0.1-0.146-0.068-0.262-0.166-0.347-0.295-0.084-0.129-0.126-0.286-0.126-0.473 0-0.161 0.031-0.293 0.093-0.397s0.145-0.186 0.25-0.247c0.105-0.061 0.223-0.106 0.352-0.137s0.262-0.054 0.397-0.070c0.171-0.020 0.309-0.036 0.416-0.048 0.106-0.014 0.184-0.035 0.232-0.065s0.072-0.078 0.072-0.145v-0.013c0-0.162-0.046-0.288-0.137-0.377-0.090-0.089-0.225-0.134-0.404-0.134-0.187 0-0.334 0.041-0.442 0.124-0.106 0.082-0.18 0.173-0.221 0.273l-0.521-0.119c0.062-0.173 0.152-0.313 0.271-0.419 0.12-0.108 0.258-0.186 0.414-0.234 0.156-0.049 0.32-0.074 0.492-0.074 0.114 0 0.234 0.014 0.362 0.041 0.129 0.026 0.249 0.074 0.36 0.145 0.113 0.070 0.205 0.171 0.276 0.302 0.072 0.13 0.108 0.299 0.108 0.506v1.892h-0.542v-0.39h-0.022c-0.036 0.072-0.090 0.142-0.161 0.212s-0.164 0.127-0.276 0.173c-0.113 0.046-0.247 0.069-0.404 0.069zM11.24 24.108c0.153 0 0.284-0.030 0.393-0.091 0.11-0.061 0.194-0.14 0.25-0.237 0.058-0.099 0.087-0.205 0.087-0.317v-0.367c-0.020 0.020-0.058 0.038-0.115 0.056-0.056 0.016-0.119 0.030-0.191 0.043-0.072 0.011-0.142 0.022-0.21 0.032-0.068 0.009-0.125 0.016-0.171 0.022-0.108 0.014-0.206 0.036-0.295 0.069-0.088 0.032-0.158 0.079-0.212 0.139-0.052 0.059-0.078 0.139-0.078 0.238 0 0.137 0.051 0.241 0.152 0.312 0.101 0.069 0.231 0.104 0.388 0.104zM14.569 21.64v0.445h-1.557v-0.445h1.557zM13.43 20.957h0.555v2.696c0 0.108 0.016 0.189 0.048 0.243 0.032 0.053 0.074 0.090 0.124 0.109 0.052 0.019 0.108 0.028 0.169 0.028 0.045 0 0.084-0.003 0.117-0.009s0.059-0.011 0.078-0.015l0.1 0.458c-0.032 0.012-0.078 0.025-0.137 0.037-0.059 0.014-0.134 0.021-0.223 0.022-0.146 0.002-0.282-0.023-0.408-0.078s-0.228-0.139-0.306-0.252c-0.078-0.114-0.117-0.257-0.117-0.429v-2.811zM15.772 22.798v1.692h-0.555v-3.8h0.547v1.414h0.035c0.067-0.153 0.169-0.275 0.306-0.366s0.317-0.135 0.538-0.135c0.195 0 0.366 0.040 0.512 0.121 0.147 0.080 0.261 0.2 0.341 0.36 0.082 0.158 0.122 0.356 0.122 0.594v1.813h-0.555v-1.746c0-0.209-0.054-0.371-0.161-0.486-0.108-0.116-0.257-0.174-0.449-0.174-0.131 0-0.249 0.028-0.353 0.084-0.103 0.056-0.184 0.137-0.243 0.245-0.058 0.106-0.087 0.235-0.087 0.386zM18.334 24.49v-2.85h0.536v0.453h0.030c0.052-0.153 0.143-0.274 0.275-0.362 0.132-0.089 0.282-0.134 0.449-0.134 0.035 0 0.075 0.001 0.122 0.004 0.048 0.002 0.086 0.006 0.113 0.009v0.531c-0.022-0.006-0.062-0.013-0.119-0.020-0.057-0.009-0.114-0.013-0.171-0.013-0.131 0-0.248 0.028-0.351 0.084-0.101 0.054-0.182 0.13-0.241 0.228-0.059 0.096-0.089 0.207-0.089 0.33v1.74h-0.555zM21.412 24.547c-0.267 0-0.5-0.061-0.699-0.184s-0.354-0.294-0.464-0.514c-0.11-0.22-0.165-0.477-0.165-0.772 0-0.296 0.055-0.554 0.165-0.776s0.265-0.393 0.464-0.516c0.199-0.122 0.432-0.184 0.699-0.184s0.5 0.061 0.699 0.184c0.199 0.122 0.354 0.294 0.464 0.516s0.165 0.48 0.165 0.776c0 0.294-0.055 0.552-0.165 0.772s-0.265 0.391-0.464 0.514c-0.199 0.122-0.432 0.184-0.699 0.184zM21.414 24.082c0.173 0 0.317-0.046 0.43-0.137s0.198-0.213 0.252-0.366c0.056-0.152 0.084-0.32 0.084-0.503 0-0.182-0.028-0.349-0.084-0.501-0.054-0.153-0.139-0.276-0.252-0.369s-0.257-0.139-0.43-0.139c-0.174 0-0.319 0.046-0.434 0.139-0.114 0.093-0.198 0.216-0.254 0.369-0.054 0.152-0.082 0.319-0.082 0.501 0 0.183 0.027 0.351 0.082 0.503 0.056 0.152 0.14 0.274 0.254 0.366 0.115 0.092 0.26 0.137 0.434 0.137zM24.534 24.547c-0.267 0-0.5-0.061-0.699-0.184s-0.354-0.294-0.464-0.514c-0.11-0.22-0.165-0.477-0.165-0.772 0-0.296 0.055-0.554 0.165-0.776s0.265-0.393 0.464-0.516c0.199-0.122 0.432-0.184 0.699-0.184s0.5 0.061 0.699 0.184c0.199 0.122 0.354 0.294 0.464 0.516s0.165 0.48 0.165 0.776c0 0.294-0.055 0.552-0.165 0.772s-0.265 0.391-0.464 0.514c-0.199 0.122-0.432 0.184-0.699 0.184zM24.535 24.082c0.173 0 0.317-0.046 0.43-0.137s0.198-0.213 0.252-0.366c0.056-0.152 0.084-0.32 0.084-0.503 0-0.182-0.028-0.349-0.084-0.501-0.054-0.153-0.139-0.276-0.252-0.369s-0.257-0.139-0.43-0.139c-0.174 0-0.319 0.046-0.434 0.139-0.114 0.093-0.198 0.216-0.254 0.369-0.054 0.152-0.082 0.319-0.082 0.501 0 0.183 0.027 0.351 0.082 0.503 0.056 0.152 0.14 0.274 0.254 0.366 0.115 0.092 0.26 0.137 0.434 0.137zM26.455 24.49v-2.85h0.532v0.464h0.035c0.059-0.157 0.156-0.28 0.291-0.367 0.135-0.089 0.296-0.134 0.484-0.134 0.191 0 0.35 0.045 0.479 0.134 0.13 0.089 0.226 0.212 0.288 0.367h0.030c0.068-0.152 0.176-0.273 0.325-0.364 0.148-0.092 0.325-0.137 0.531-0.137 0.259 0 0.469 0.081 0.633 0.243 0.165 0.162 0.247 0.406 0.247 0.733v1.911h-0.555v-1.859c0-0.193-0.053-0.333-0.158-0.419s-0.231-0.13-0.377-0.13c-0.181 0-0.321 0.056-0.421 0.167-0.1 0.11-0.15 0.252-0.15 0.425v1.816h-0.553v-1.894c0-0.155-0.048-0.279-0.145-0.373s-0.222-0.141-0.377-0.141c-0.105 0-0.202 0.028-0.291 0.084-0.088 0.054-0.159 0.13-0.213 0.228-0.053 0.098-0.080 0.211-0.080 0.34v1.757h-0.555z"></path>
</symbol>
<symbol id="icon-Kitchen" viewBox="0 0 37 32">
<path d="M13.878 9.469c-0.049 0-0.097 0.011-0.141 0.032s-0.083 0.052-0.113 0.090c-0.031 0.038-0.052 0.083-0.063 0.13s-0.011 0.097-0.001 0.145l1.079 4.855c0.081 0.363 0.282 0.687 0.572 0.919s0.65 0.359 1.021 0.359h3.783c0.371-0 0.732-0.127 1.021-0.359s0.491-0.557 0.572-0.919l0.086-0.385c0.5 0.093 1.016-0.011 1.44-0.291s0.723-0.714 0.833-1.21c0.11-0.496 0.023-1.016-0.242-1.449s-0.689-0.746-1.181-0.873l0.144-0.647c0.011-0.048 0.010-0.097-0.001-0.145s-0.033-0.092-0.063-0.13c-0.031-0.038-0.069-0.069-0.113-0.090s-0.092-0.032-0.141-0.032h-8.49zM22.041 13.714c-0.069 0-0.138-0.005-0.206-0.016l0.566-2.546c0.302 0.087 0.562 0.281 0.733 0.545s0.241 0.581 0.197 0.892c-0.044 0.311-0.198 0.597-0.435 0.803s-0.541 0.321-0.855 0.322zM15.275 14.58l-0.991-4.457h7.676l-0.991 4.457c-0.048 0.218-0.169 0.412-0.343 0.552s-0.39 0.216-0.613 0.216h-3.783c-0.223-0-0.439-0.076-0.613-0.216s-0.295-0.334-0.343-0.552z"></path>
<path d="M16.424 6.073l-0.002 0.003-0.009 0.012c-0.047 0.065-0.092 0.133-0.133 0.202-0.035 0.056-0.066 0.114-0.092 0.174-0.017 0.039-0.022 0.060-0.024 0.067v0.003c0.008 0.058 0.028 0.113 0.059 0.162 0.049 0.087 0.116 0.178 0.201 0.291l0.007 0.008c0.077 0.103 0.17 0.227 0.242 0.355 0.073 0.131 0.144 0.297 0.144 0.487 0 0.123-0.042 0.24-0.078 0.323-0.038 0.088-0.082 0.172-0.132 0.253-0.051 0.086-0.106 0.169-0.165 0.249l-0.012 0.016-0.003 0.005-0.001 0.001c-0.052 0.069-0.129 0.115-0.215 0.128s-0.173-0.010-0.242-0.062-0.115-0.129-0.128-0.215c-0.012-0.086 0.010-0.173 0.062-0.242l0.002-0.003 0.009-0.012c0.047-0.065 0.092-0.133 0.133-0.202 0.035-0.056 0.066-0.114 0.092-0.174 0.017-0.039 0.022-0.060 0.024-0.067-0.007-0.059-0.027-0.115-0.059-0.165-0.061-0.101-0.128-0.198-0.202-0.291l-0.007-0.008c-0.088-0.113-0.169-0.231-0.242-0.355-0.089-0.147-0.138-0.315-0.144-0.487 0-0.123 0.042-0.24 0.078-0.323 0.039-0.090 0.088-0.179 0.132-0.253 0.052-0.085 0.107-0.168 0.165-0.249l0.016-0.023c0.052-0.069 0.129-0.115 0.215-0.128s0.173 0.010 0.242 0.062 0.115 0.129 0.128 0.215c0.012 0.086-0.010 0.173-0.062 0.242zM18.384 6.073l-0.002 0.003-0.009 0.012c-0.047 0.065-0.092 0.133-0.133 0.202-0.035 0.056-0.066 0.114-0.092 0.174-0.017 0.039-0.022 0.060-0.024 0.067v0.003c0.008 0.058 0.028 0.113 0.059 0.162 0.049 0.087 0.116 0.178 0.201 0.291l0.007 0.008c0.077 0.103 0.17 0.227 0.242 0.355 0.073 0.131 0.144 0.297 0.144 0.487 0 0.123-0.042 0.24-0.078 0.323-0.038 0.088-0.082 0.172-0.132 0.253-0.051 0.086-0.106 0.169-0.165 0.249l-0.012 0.016-0.003 0.005-0.001 0.001c-0.052 0.069-0.129 0.115-0.215 0.128s-0.173-0.010-0.242-0.062-0.115-0.129-0.128-0.215c-0.012-0.086 0.010-0.173 0.062-0.242l0.002-0.003 0.009-0.012c0.047-0.065 0.092-0.133 0.133-0.202 0.035-0.056 0.066-0.114 0.092-0.174 0.017-0.039 0.022-0.060 0.024-0.067-0.007-0.059-0.027-0.115-0.059-0.165-0.061-0.101-0.128-0.198-0.202-0.291l-0.007-0.008c-0.088-0.113-0.169-0.231-0.242-0.355-0.089-0.147-0.138-0.315-0.144-0.487 0-0.123 0.042-0.24 0.078-0.323 0.039-0.090 0.087-0.179 0.132-0.253 0.052-0.085 0.107-0.168 0.165-0.249l0.016-0.023c0.052-0.069 0.129-0.115 0.215-0.128s0.173 0.010 0.242 0.062 0.115 0.129 0.128 0.215c0.012 0.086-0.010 0.173-0.062 0.242zM20.343 6.073l-0.002 0.003-0.009 0.012c-0.047 0.065-0.092 0.133-0.133 0.202-0.035 0.056-0.066 0.114-0.092 0.174-0.017 0.039-0.022 0.060-0.024 0.067v0.003c0.008 0.058 0.028 0.113 0.059 0.162 0.049 0.087 0.116 0.178 0.201 0.291l0.007 0.008c0.077 0.103 0.17 0.227 0.242 0.355 0.073 0.131 0.144 0.297 0.144 0.487 0 0.123-0.042 0.24-0.078 0.323-0.038 0.088-0.082 0.172-0.132 0.253-0.051 0.086-0.106 0.169-0.165 0.249l-0.012 0.016-0.003 0.005-0.001 0.001c-0.052 0.069-0.129 0.115-0.215 0.128s-0.173-0.010-0.242-0.062-0.115-0.129-0.128-0.215c-0.012-0.086 0.010-0.173 0.062-0.242l0.002-0.003 0.009-0.012c0.047-0.065 0.092-0.133 0.133-0.202 0.035-0.056 0.066-0.114 0.092-0.174 0.017-0.039 0.022-0.060 0.024-0.067-0.007-0.059-0.027-0.115-0.059-0.165-0.061-0.101-0.128-0.198-0.202-0.291l-0.007-0.008c-0.088-0.113-0.169-0.231-0.242-0.355-0.089-0.147-0.138-0.315-0.144-0.487 0-0.123 0.042-0.24 0.078-0.323 0.039-0.090 0.087-0.179 0.132-0.253 0.052-0.085 0.107-0.168 0.165-0.249l0.016-0.023c0.052-0.069 0.129-0.115 0.215-0.128s0.173 0.010 0.242 0.062 0.115 0.129 0.128 0.215c0.012 0.086-0.010 0.173-0.062 0.242z"></path>
<path d="M9.692 24.49v-3.8h0.573v1.814h0.046l1.594-1.814h0.722l-1.532 1.711 1.538 2.089h-0.69l-1.228-1.698-0.449 0.516v1.182h-0.573zM13.27 24.49v-2.85h0.555v2.85h-0.555zM13.55 21.2c-0.096 0-0.179-0.032-0.249-0.096-0.068-0.066-0.102-0.143-0.102-0.234 0-0.092 0.034-0.169 0.102-0.234 0.069-0.066 0.152-0.098 0.249-0.098s0.179 0.033 0.247 0.098c0.069 0.064 0.104 0.142 0.104 0.234 0 0.090-0.035 0.168-0.104 0.234-0.068 0.064-0.15 0.096-0.247 0.096zM15.875 21.64v0.445h-1.557v-0.445h1.557zM14.736 20.957h0.555v2.696c0 0.108 0.016 0.189 0.048 0.243 0.032 0.053 0.074 0.090 0.124 0.109 0.052 0.019 0.108 0.028 0.169 0.028 0.045 0 0.084-0.003 0.117-0.009s0.059-0.011 0.078-0.015l0.1 0.458c-0.032 0.012-0.078 0.025-0.137 0.037-0.059 0.014-0.134 0.021-0.223 0.022-0.146 0.002-0.282-0.023-0.408-0.078s-0.228-0.139-0.306-0.252c-0.078-0.114-0.117-0.257-0.117-0.429v-2.811zM17.632 24.547c-0.276 0-0.513-0.062-0.712-0.187-0.198-0.126-0.35-0.3-0.456-0.521s-0.16-0.475-0.16-0.761c0-0.289 0.054-0.545 0.163-0.766 0.109-0.223 0.262-0.396 0.46-0.521s0.431-0.187 0.699-0.187c0.216 0 0.409 0.040 0.579 0.121 0.169 0.079 0.306 0.19 0.41 0.334 0.105 0.143 0.168 0.311 0.187 0.503h-0.54c-0.030-0.134-0.098-0.249-0.204-0.345-0.105-0.096-0.246-0.145-0.423-0.145-0.155 0-0.29 0.041-0.406 0.122-0.115 0.080-0.205 0.195-0.269 0.345-0.064 0.148-0.096 0.324-0.096 0.527 0 0.208 0.032 0.387 0.095 0.538s0.152 0.268 0.267 0.351c0.116 0.083 0.253 0.124 0.41 0.124 0.105 0 0.2-0.019 0.286-0.058 0.087-0.040 0.159-0.096 0.217-0.169 0.059-0.073 0.101-0.161 0.124-0.263h0.54c-0.020 0.184-0.080 0.349-0.18 0.494s-0.234 0.259-0.403 0.341c-0.167 0.083-0.363 0.124-0.588 0.124zM19.924 22.798v1.692h-0.555v-3.8h0.547v1.414h0.035c0.067-0.153 0.169-0.275 0.306-0.366s0.317-0.135 0.538-0.135c0.195 0 0.366 0.040 0.512 0.121 0.147 0.080 0.261 0.2 0.341 0.36 0.082 0.158 0.122 0.356 0.122 0.594v1.813h-0.555v-1.746c0-0.209-0.054-0.371-0.161-0.486-0.108-0.116-0.257-0.174-0.449-0.174-0.131 0-0.249 0.028-0.352 0.084-0.103 0.056-0.184 0.137-0.243 0.245-0.058 0.106-0.087 0.235-0.087 0.386zM23.715 24.547c-0.281 0-0.523-0.060-0.725-0.18-0.202-0.121-0.357-0.291-0.468-0.51-0.109-0.22-0.163-0.478-0.163-0.774 0-0.292 0.054-0.549 0.163-0.772 0.11-0.223 0.263-0.396 0.46-0.521 0.198-0.125 0.429-0.187 0.694-0.187 0.161 0 0.317 0.027 0.468 0.080s0.286 0.137 0.406 0.25c0.12 0.114 0.215 0.262 0.284 0.443 0.069 0.181 0.104 0.4 0.104 0.659v0.197h-2.265v-0.416h1.722c0-0.146-0.030-0.275-0.089-0.388-0.059-0.114-0.143-0.203-0.25-0.269-0.106-0.066-0.231-0.098-0.375-0.098-0.156 0-0.292 0.038-0.408 0.115-0.115 0.075-0.204 0.174-0.267 0.297-0.062 0.121-0.093 0.253-0.093 0.395v0.325c0 0.19 0.033 0.353 0.1 0.486 0.068 0.134 0.163 0.236 0.284 0.306 0.121 0.069 0.263 0.104 0.425 0.104 0.105 0 0.201-0.015 0.288-0.044 0.087-0.031 0.161-0.077 0.224-0.137s0.111-0.135 0.145-0.224l0.525 0.095c-0.042 0.155-0.118 0.29-0.226 0.406-0.108 0.115-0.243 0.205-0.406 0.269-0.162 0.063-0.347 0.095-0.555 0.095zM26.081 22.798v1.692h-0.555v-2.85h0.532v0.464h0.035c0.066-0.151 0.168-0.272 0.308-0.364 0.141-0.092 0.319-0.137 0.532-0.137 0.194 0 0.364 0.041 0.51 0.122 0.146 0.080 0.259 0.2 0.34 0.36s0.121 0.357 0.121 0.592v1.813h-0.555v-1.746c0-0.207-0.054-0.368-0.161-0.484-0.108-0.118-0.255-0.176-0.443-0.176-0.129 0-0.243 0.028-0.343 0.084-0.099 0.056-0.177 0.137-0.236 0.245-0.057 0.106-0.085 0.235-0.085 0.386z"></path>
</symbol>
<symbol id="icon-Automatic" viewBox="0 0 37 32">
<path d="M17.633 7.837c0-0.26 0.103-0.509 0.287-0.693s0.433-0.287 0.693-0.287h0.653c0.26 0 0.509 0.103 0.693 0.287s0.287 0.433 0.287 0.693v0.653c0 0.26-0.103 0.509-0.287 0.693s-0.433 0.287-0.693 0.287v0.653h3.592c0.087 0 0.17 0.034 0.231 0.096s0.096 0.144 0.096 0.231v0.653c0 0.087-0.034 0.17-0.096 0.231s-0.144 0.096-0.231 0.096c-0.087 0-0.17-0.034-0.231-0.096s-0.096-0.144-0.096-0.231v-0.327h-3.265v0.327c0 0.087-0.034 0.17-0.096 0.231s-0.144 0.096-0.231 0.096c-0.087 0-0.17-0.034-0.231-0.096s-0.096-0.144-0.096-0.231v-0.327h-3.265v0.327c0 0.087-0.034 0.17-0.096 0.231s-0.144 0.096-0.231 0.096c-0.087 0-0.17-0.034-0.231-0.096s-0.096-0.144-0.096-0.231v-0.653c0-0.087 0.034-0.17 0.096-0.231s0.144-0.096 0.231-0.096h3.592v-0.653c-0.26 0-0.509-0.103-0.693-0.287s-0.287-0.433-0.287-0.693v-0.653zM19.265 8.816c0.087 0 0.17-0.034 0.231-0.096s0.096-0.144 0.096-0.231v-0.653c0-0.087-0.034-0.17-0.096-0.231s-0.144-0.096-0.231-0.096h-0.653c-0.087 0-0.17 0.034-0.231 0.096s-0.096 0.144-0.096 0.231v0.653c0 0.087 0.034 0.17 0.096 0.231s0.144 0.096 0.231 0.096h0.653zM13.714 13.061c0-0.26 0.103-0.509 0.287-0.693s0.433-0.287 0.693-0.287h0.653c0.26 0 0.509 0.103 0.693 0.287s0.287 0.433 0.287 0.693v0.653c0 0.26-0.103 0.509-0.287 0.693s-0.433 0.287-0.693 0.287h-0.653c-0.26 0-0.509-0.103-0.693-0.287s-0.287-0.433-0.287-0.693v-0.653zM14.694 12.735c-0.087 0-0.17 0.034-0.231 0.096s-0.096 0.144-0.096 0.231v0.653c0 0.087 0.034 0.17 0.096 0.231s0.144 0.096 0.231 0.096h0.653c0.087 0 0.17-0.034 0.231-0.096s0.096-0.144 0.096-0.231v-0.653c0-0.087-0.034-0.17-0.096-0.231s-0.144-0.096-0.231-0.096h-0.653zM17.633 13.061c0-0.26 0.103-0.509 0.287-0.693s0.433-0.287 0.693-0.287h0.653c0.26 0 0.509 0.103 0.693 0.287s0.287 0.433 0.287 0.693v0.653c0 0.26-0.103 0.509-0.287 0.693s-0.433 0.287-0.693 0.287h-0.653c-0.26 0-0.509-0.103-0.693-0.287s-0.287-0.433-0.287-0.693v-0.653zM18.612 12.735c-0.087 0-0.17 0.034-0.231 0.096s-0.096 0.144-0.096 0.231v0.653c0 0.087 0.034 0.17 0.096 0.231s0.144 0.096 0.231 0.096h0.653c0.087 0 0.17-0.034 0.231-0.096s0.096-0.144 0.096-0.231v-0.653c0-0.087-0.034-0.17-0.096-0.231s-0.144-0.096-0.231-0.096h-0.653zM21.551 13.061c0-0.26 0.103-0.509 0.287-0.693s0.433-0.287 0.693-0.287h0.653c0.26 0 0.509 0.103 0.693 0.287s0.287 0.433 0.287 0.693v0.653c0 0.26-0.103 0.509-0.287 0.693s-0.433 0.287-0.693 0.287h-0.653c-0.26 0-0.509-0.103-0.693-0.287s-0.287-0.433-0.287-0.693v-0.653zM22.531 12.735c-0.087 0-0.17 0.034-0.231 0.096s-0.096 0.144-0.096 0.231v0.653c0 0.087 0.034 0.17 0.096 0.231s0.144 0.096 0.231 0.096h0.653c0.087 0 0.17-0.034 0.231-0.096s0.096-0.144 0.096-0.231v-0.653c0-0.087-0.034-0.17-0.096-0.231s-0.144-0.096-0.231-0.096h-0.653z"></path>
<path d="M6.968 24.49h-0.609l1.367-3.8h0.662l1.367 3.8h-0.609l-1.074-3.109h-0.030l-1.076 3.109zM7.070 23.002h1.974v0.482h-1.974v-0.482zM12.040 23.308v-1.668h0.557v2.85h-0.545v-0.494h-0.030c-0.066 0.152-0.171 0.279-0.315 0.38-0.143 0.1-0.322 0.15-0.536 0.15-0.183 0-0.345-0.040-0.486-0.121-0.14-0.082-0.25-0.202-0.33-0.362-0.079-0.16-0.119-0.357-0.119-0.592v-1.813h0.555v1.746c0 0.194 0.054 0.349 0.161 0.464s0.247 0.173 0.419 0.173c0.104 0 0.207-0.026 0.31-0.078 0.104-0.052 0.19-0.13 0.258-0.236 0.069-0.105 0.103-0.239 0.102-0.401zM14.646 21.64v0.445h-1.557v-0.445h1.557zM13.507 20.957h0.555v2.696c0 0.108 0.016 0.189 0.048 0.243 0.032 0.053 0.074 0.090 0.124 0.109 0.052 0.019 0.108 0.028 0.169 0.028 0.044 0 0.083-0.003 0.117-0.009s0.059-0.011 0.078-0.015l0.1 0.458c-0.032 0.012-0.078 0.025-0.137 0.037-0.059 0.014-0.134 0.021-0.223 0.022-0.146 0.002-0.282-0.023-0.408-0.078s-0.228-0.139-0.306-0.252c-0.078-0.114-0.117-0.257-0.117-0.429v-2.811zM16.403 24.547c-0.267 0-0.5-0.061-0.699-0.184s-0.354-0.294-0.464-0.514c-0.11-0.22-0.165-0.477-0.165-0.772 0-0.296 0.055-0.554 0.165-0.776s0.265-0.393 0.464-0.516c0.199-0.122 0.432-0.184 0.699-0.184s0.5 0.061 0.699 0.184c0.199 0.122 0.354 0.294 0.464 0.516s0.165 0.48 0.165 0.776c0 0.294-0.055 0.552-0.165 0.772s-0.265 0.391-0.464 0.514c-0.199 0.122-0.432 0.184-0.699 0.184zM16.405 24.082c0.173 0 0.317-0.046 0.43-0.137s0.198-0.213 0.252-0.366c0.056-0.152 0.084-0.32 0.084-0.503 0-0.182-0.028-0.349-0.084-0.501-0.054-0.153-0.139-0.276-0.252-0.369s-0.257-0.139-0.43-0.139c-0.174 0-0.319 0.046-0.434 0.139-0.114 0.093-0.199 0.216-0.254 0.369-0.054 0.152-0.082 0.319-0.082 0.501 0 0.183 0.027 0.351 0.082 0.503 0.056 0.152 0.14 0.274 0.254 0.366 0.115 0.092 0.26 0.137 0.434 0.137zM18.324 24.49v-2.85h0.532v0.464h0.035c0.059-0.157 0.156-0.28 0.291-0.367 0.135-0.089 0.296-0.134 0.484-0.134 0.191 0 0.35 0.045 0.479 0.134 0.13 0.089 0.226 0.212 0.288 0.367h0.030c0.068-0.152 0.176-0.273 0.325-0.364 0.148-0.092 0.325-0.137 0.531-0.137 0.258 0 0.469 0.081 0.633 0.243 0.165 0.162 0.247 0.406 0.247 0.733v1.911h-0.555v-1.859c0-0.193-0.053-0.333-0.158-0.419s-0.231-0.13-0.377-0.13c-0.181 0-0.321 0.056-0.421 0.167-0.1 0.11-0.15 0.252-0.15 0.425v1.816h-0.553v-1.894c0-0.155-0.048-0.279-0.145-0.373s-0.222-0.141-0.377-0.141c-0.105 0-0.202 0.028-0.291 0.084-0.088 0.054-0.159 0.13-0.213 0.228-0.053 0.098-0.080 0.211-0.080 0.34v1.757h-0.555zM23.745 24.553c-0.181 0-0.344-0.033-0.49-0.1-0.146-0.068-0.262-0.166-0.347-0.295-0.084-0.129-0.126-0.286-0.126-0.473 0-0.161 0.031-0.293 0.093-0.397s0.145-0.186 0.25-0.247c0.105-0.061 0.223-0.106 0.352-0.137s0.262-0.054 0.397-0.070c0.171-0.020 0.309-0.036 0.416-0.048 0.106-0.014 0.184-0.035 0.232-0.065s0.072-0.078 0.072-0.145v-0.013c0-0.162-0.046-0.288-0.137-0.377-0.090-0.089-0.225-0.134-0.404-0.134-0.187 0-0.334 0.041-0.442 0.124-0.106 0.082-0.18 0.173-0.221 0.273l-0.521-0.119c0.062-0.173 0.152-0.313 0.271-0.419 0.12-0.108 0.258-0.186 0.414-0.234 0.156-0.049 0.32-0.074 0.492-0.074 0.114 0 0.234 0.014 0.362 0.041 0.129 0.026 0.249 0.074 0.36 0.145 0.113 0.070 0.205 0.171 0.276 0.302 0.072 0.13 0.108 0.299 0.108 0.506v1.892h-0.542v-0.39h-0.022c-0.036 0.072-0.090 0.142-0.161 0.212s-0.164 0.127-0.276 0.173c-0.113 0.046-0.247 0.069-0.404 0.069zM23.866 24.108c0.153 0 0.284-0.030 0.393-0.091 0.11-0.061 0.194-0.14 0.25-0.237 0.058-0.099 0.087-0.205 0.087-0.317v-0.367c-0.020 0.020-0.058 0.038-0.115 0.056-0.056 0.016-0.119 0.030-0.191 0.043-0.072 0.011-0.142 0.022-0.21 0.032-0.068 0.009-0.125 0.016-0.171 0.022-0.108 0.014-0.206 0.036-0.295 0.069-0.088 0.032-0.158 0.079-0.212 0.139-0.052 0.059-0.078 0.139-0.078 0.238 0 0.137 0.051 0.241 0.152 0.312 0.101 0.069 0.231 0.104 0.388 0.104zM27.194 21.64v0.445h-1.557v-0.445h1.557zM26.055 20.957h0.555v2.696c0 0.108 0.016 0.189 0.048 0.243 0.032 0.053 0.074 0.090 0.124 0.109 0.052 0.019 0.108 0.028 0.169 0.028 0.044 0 0.083-0.003 0.117-0.009s0.059-0.011 0.078-0.015l0.1 0.458c-0.032 0.012-0.078 0.025-0.137 0.037-0.059 0.014-0.134 0.021-0.223 0.022-0.146 0.002-0.282-0.023-0.408-0.078s-0.228-0.139-0.306-0.252c-0.078-0.114-0.117-0.257-0.117-0.429v-2.811zM27.782 24.49v-2.85h0.555v2.85h-0.555zM28.062 21.2c-0.096 0-0.179-0.032-0.249-0.096-0.068-0.066-0.102-0.143-0.102-0.234 0-0.092 0.034-0.169 0.102-0.234 0.069-0.066 0.152-0.098 0.249-0.098s0.179 0.033 0.247 0.098c0.069 0.064 0.104 0.142 0.104 0.234 0 0.090-0.035 0.168-0.104 0.234-0.068 0.064-0.15 0.096-0.247 0.096zM30.257 24.547c-0.276 0-0.513-0.062-0.712-0.187-0.198-0.126-0.35-0.3-0.456-0.521s-0.16-0.475-0.16-0.761c0-0.289 0.054-0.545 0.163-0.766 0.109-0.223 0.262-0.396 0.46-0.521s0.431-0.187 0.699-0.187c0.216 0 0.409 0.040 0.579 0.121 0.169 0.079 0.306 0.19 0.41 0.334 0.105 0.143 0.168 0.311 0.187 0.503h-0.54c-0.030-0.134-0.098-0.249-0.204-0.345-0.105-0.096-0.246-0.145-0.423-0.145-0.155 0-0.29 0.041-0.406 0.122-0.115 0.080-0.205 0.195-0.269 0.345-0.064 0.148-0.096 0.324-0.096 0.527 0 0.208 0.032 0.387 0.095 0.538s0.152 0.268 0.267 0.351c0.116 0.083 0.253 0.124 0.41 0.124 0.105 0 0.2-0.019 0.286-0.058 0.087-0.040 0.159-0.096 0.217-0.169 0.059-0.073 0.101-0.161 0.124-0.263h0.54c-0.020 0.184-0.080 0.349-0.18 0.494s-0.234 0.259-0.403 0.341c-0.167 0.083-0.363 0.124-0.588 0.124z"></path>
</symbol>
<symbol id="icon-AC" viewBox="0 0 37 32">
<path d="M21.551 6.857c-0.433 0-0.848 0.172-1.154 0.478s-0.478 0.721-0.478 1.154c0 0.087-0.034 0.17-0.096 0.231s-0.144 0.096-0.231 0.096c-0.087 0-0.17-0.034-0.231-0.096s-0.096-0.144-0.096-0.231c0-0.452 0.134-0.894 0.385-1.27s0.608-0.669 1.026-0.842c0.418-0.173 0.877-0.218 1.321-0.13s0.851 0.306 1.17 0.626c0.32 0.32 0.537 0.727 0.626 1.17s0.043 0.903-0.13 1.321c-0.173 0.418-0.466 0.775-0.842 1.026s-0.818 0.385-1.27 0.385h-7.837c-0.087 0-0.17-0.034-0.231-0.096s-0.096-0.144-0.096-0.231c0-0.087 0.034-0.17 0.096-0.231s0.144-0.096 0.231-0.096h7.837c0.433 0 0.848-0.172 1.154-0.478s0.478-0.721 0.478-1.154-0.172-0.848-0.478-1.154c-0.306-0.306-0.721-0.478-1.154-0.478zM16.98 7.51c-0.173 0-0.339 0.069-0.462 0.191s-0.191 0.289-0.191 0.462c0 0.087-0.034 0.17-0.096 0.231s-0.144 0.096-0.231 0.096c-0.087 0-0.17-0.034-0.231-0.096s-0.096-0.144-0.096-0.231c0-0.258 0.077-0.511 0.22-0.726s0.348-0.382 0.586-0.481c0.239-0.099 0.501-0.125 0.755-0.074s0.486 0.175 0.669 0.357 0.307 0.415 0.357 0.669c0.050 0.253 0.025 0.516-0.074 0.755s-0.266 0.443-0.481 0.586-0.467 0.22-0.726 0.22h-3.265c-0.087 0-0.17-0.034-0.231-0.096s-0.096-0.144-0.096-0.231c0-0.087 0.034-0.17 0.096-0.231s0.144-0.096 0.231-0.096h3.265c0.173 0 0.339-0.069 0.462-0.191s0.191-0.289 0.191-0.462c0-0.173-0.069-0.339-0.191-0.462s-0.289-0.191-0.462-0.191zM13.388 11.755c0-0.087 0.034-0.17 0.096-0.231s0.144-0.096 0.231-0.096h6.558c0.387 0 0.766 0.115 1.088 0.33s0.573 0.521 0.722 0.879c0.148 0.358 0.187 0.752 0.111 1.132s-0.262 0.729-0.536 1.003c-0.274 0.274-0.623 0.461-1.003 0.536s-0.774 0.037-1.132-0.111-0.664-0.399-0.879-0.722c-0.215-0.322-0.33-0.701-0.33-1.088 0-0.087 0.034-0.17 0.096-0.231s0.144-0.096 0.231-0.096c0.087 0 0.17 0.034 0.231 0.096s0.096 0.144 0.096 0.231c0 0.258 0.077 0.511 0.22 0.726s0.348 0.382 0.586 0.481c0.239 0.099 0.501 0.125 0.755 0.074s0.486-0.175 0.669-0.357 0.307-0.415 0.357-0.669c0.050-0.253 0.025-0.516-0.074-0.755s-0.266-0.443-0.481-0.586-0.467-0.22-0.726-0.22h-6.558c-0.087 0-0.17-0.034-0.231-0.096s-0.096-0.144-0.096-0.231z"></path>
<path d="M15.703 24.49h-0.609l1.367-3.8h0.662l1.367 3.8h-0.609l-1.074-3.109h-0.030l-1.076 3.109zM15.805 23.002h1.974v0.482h-1.974v-0.482zM21.991 21.926h-0.579c-0.022-0.124-0.064-0.233-0.124-0.327s-0.135-0.174-0.223-0.239c-0.088-0.066-0.186-0.115-0.295-0.148-0.108-0.033-0.222-0.050-0.343-0.050-0.219 0-0.415 0.055-0.588 0.165-0.172 0.11-0.308 0.271-0.408 0.484-0.099 0.213-0.148 0.472-0.148 0.779 0 0.309 0.049 0.57 0.148 0.783 0.1 0.213 0.237 0.374 0.41 0.482s0.368 0.163 0.584 0.163c0.12 0 0.234-0.016 0.341-0.048 0.109-0.033 0.207-0.082 0.295-0.147s0.162-0.143 0.223-0.236c0.062-0.094 0.105-0.202 0.128-0.323l0.579 0.002c-0.031 0.187-0.091 0.359-0.18 0.516-0.088 0.156-0.201 0.291-0.34 0.404-0.137 0.113-0.294 0.2-0.471 0.262s-0.37 0.093-0.579 0.093c-0.329 0-0.622-0.078-0.879-0.234-0.257-0.157-0.46-0.382-0.609-0.673-0.147-0.292-0.221-0.64-0.221-1.045 0-0.406 0.074-0.754 0.223-1.044 0.148-0.292 0.351-0.516 0.609-0.672 0.257-0.157 0.55-0.236 0.878-0.236 0.202 0 0.39 0.029 0.564 0.087 0.176 0.057 0.333 0.141 0.473 0.252 0.14 0.11 0.255 0.245 0.347 0.404 0.092 0.158 0.153 0.34 0.186 0.544z"></path>
</symbol>
<symbol id="icon-Location" viewBox="0 0 32 32">
<path fill="#6c717b" style="fill: var(--color1, #6c717b)" d="M31.634 0.226c0.115 0.094 0.207 0.212 0.27 0.346s0.096 0.28 0.096 0.428v28c-0 0.231-0.080 0.455-0.227 0.634s-0.351 0.301-0.577 0.346l-10 2c-0.129 0.026-0.263 0.026-0.392 0l-9.804-1.96-9.804 1.96c-0.145 0.029-0.295 0.025-0.438-0.010s-0.277-0.103-0.392-0.197c-0.114-0.094-0.207-0.212-0.27-0.345s-0.096-0.28-0.096-0.428v-28c0-0.231 0.080-0.455 0.227-0.634s0.351-0.301 0.577-0.346l10-2c0.129-0.026 0.263-0.026 0.392 0l9.804 1.96 9.804-1.96c0.145-0.029 0.295-0.026 0.438 0.010s0.277 0.103 0.392 0.196zM20 3.82l-8-1.6v25.96l8 1.6v-25.96zM22 29.78l8-1.6v-25.96l-8 1.6v25.96zM10 28.18v-25.96l-8 1.6v25.96l8-1.6z"></path>
</symbol>
</defs>
</svg>
